<?xml version="1.0" encoding="UTF-8"?>
<svg id="Layer_2" data-name="Layer 2" xmlns="http://www.w3.org/2000/svg" viewBox="0 0 12.93 14.37">
  <defs>
    <style>
      .cls-1 {
        fill: #202020;
      }
    </style>
  </defs>
  <g id="Layer_1-2" data-name="Layer 1">
    <g>
      <path class="cls-1" d="M2.43,13.12c.01.05.1.1.14.02l-.09-.15-.06.13Z"/>
      <path class="cls-1" d="M3.05,12.86c0-.13-.02-.31-.18-.36.05.18-.01.16.06.37-.04.08-.14.08-.18.03.01.05-.12.08-.07.19.17,0,.27-.12.29-.3.05,0,.06.05.08.08Z"/>
      <path class="cls-1" d="M8.85,6.37l-.05.03s.04-.02.05-.03Z"/>
      <path class="cls-1" d="M10.22,3.2c.06-.02.11-.06.13-.08-.07.03-.12.06-.13.08Z"/>
      <path class="cls-1" d="M9.04,3.4s.05,0,.08-.01c-.03,0-.06,0-.08.01Z"/>
      <path class="cls-1" d="M8.85,6.37l.13-.08s-.08.03-.13.08Z"/>
      <path class="cls-1" d="M3.52,11.69s-.02.06-.02.09l.03-.07-.02-.02Z"/>
      <path class="cls-1" d="M7.42,8.27l-.03.03s.02.05.03.07v-.1Z"/>
      <path class="cls-1" d="M6.27,9.68s-.07-.13-.1-.18c.03.06.03.1.02.13.02.02.05.03.09.05Z"/>
      <path class="cls-1" d="M4.22,11.74l-.02.05s.01-.03.02-.05Z"/>
      <path class="cls-1" d="M8.29,7.29s.04.02.05.02c-.01-.01-.03-.02-.05-.02Z"/>
      <path class="cls-1" d="M3.88,11.47h-.02s.02.01.02,0Z"/>
      <polygon class="cls-1" points="2.65 13.33 2.65 13.3 2.58 13.27 2.65 13.33"/>
      <path class="cls-1" d="M7.11,3.85h0s.01-.02,0,0Z"/>
      <path class="cls-1" d="M8.15,12.07c-.07-.2.33.03.19-.24-.01.06-.32.05-.19.24Z"/>
      <path class="cls-1" d="M3.56,11.66l.05-.06s-.04.04-.05.06Z"/>
      <path class="cls-1" d="M8.34,11.83h0s-.02-.03-.02-.03c0,.01,0,.02.01.03Z"/>
      <path class="cls-1" d="M3.45,5.15s.04.03.06.05c0-.01-.02-.03-.06-.05Z"/>
      <path class="cls-1" d="M6.26,4.43h-.07s.05,0,.07,0Z"/>
      <path class="cls-1" d="M1.86,5.88c-.06,0-.1,0-.16.04.02,0,.03,0,.04,0,0-.02.04-.04.12-.05Z"/>
      <path class="cls-1" d="M.7,6.77s.01-.02.02-.02l-.07-.04.06.06Z"/>
      <path class="cls-1" d="M5.07,6.87s-.09.03-.14.04c.1,0,.08.23.14-.04Z"/>
      <path class="cls-1" d="M3.58,11.74s-.03-.05-.02-.07l-.03.04s.03.03.04.03Z"/>
      <path class="cls-1" d="M2.81,6.74h-.06s.04,0,.06,0Z"/>
      <path class="cls-1" d="M7.61,6.51l-.04-.05s.02.04.04.05Z"/>
      <path class="cls-1" d="M2.7,6.78c-.1-.02-.19-.02-.23-.02.03,0,.05,0,.08.01.03,0,.1,0,.14,0Z"/>
      <path class="cls-1" d="M4.92,6.91h0s0,0,0,0Z"/>
      <path class="cls-1" d="M4.82,8.57c.07-.23-.15-.15-.23-.23.02-.29.17-.09.28-.16,0-.18-.13-.36-.09-.48.03,0,.05-.02.08.02-.09-.22.14-.54.02-.79.02-.01.04-.02.05-.02-.1,0-.19-.01-.25-.03.02-.1-.06-.22.07-.23-.02.06.02.08.05.12l-.02-.12c.19-.05.02.16.14.2,0-.22-.07-.51.02-.65.17.01-.05.39.16.22l-.13.23c.31-.12-.06.15.26.05.14-.31.02-.39.15-.7-.07-.1-.14-.01-.21-.11-.04-.51.51-.25.39-.65-.09-.12-.28-.21-.11-.42l.16.13c.1-.31-.22-.25,0-.55.06.08,0,.27.03.22.2-.17-.06-.18-.02-.35h.17c.03-.16.05-.35.06-.54.01-.12,0-.16,0-.2,0-.05,0-.1,0-.15.04.05.08.11.13.12-.03-.23.11-.33.15-.1l-.03-.44s.02.17.03.26c.02.13-.02-.27-.03-.47,0-.08.03.27.03.37-.02-.36.16-.31.16.09l-.03.05c0,.14.19-.32.17-.02h-.03c.02.09.04.15.07.21.04.1.09.2.13.3.11.26.19.52.18.77.23,0,.13.56.42.48,0,.36-.09.29,0,.76.04.12.24.1.33.23l-.14.06.23.13-.13.17.09.12c-.01-.06.02-.14.06-.15.15.18.11.54.04.58l.32.44c-.06.01-.12-.06-.18-.11.25.2-.13.11.1.29.02-.05.09-.02.12-.02-.04.16.08.43.2.61h-.11c.13.38.37.75.53,1.15-.02-.16.17-.2.23-.09l-.13.11c.13.04,0-.15.18-.04.05.16-.13.17-.21.11l.13.16s-.08,0-.14,0c.13.04-.02.38.19.42l-.04.03c.17.41.3.57.44.9.13-.05.16.09.3.15.01.15-.08.2-.04.27.12.11.17.1.3.2-.17-.09-.12.01-.28-.13.07.12.08.12.34.5.09.09.12.1.21.21.06.09-.06-.01-.19-.16l-.03-.04c.06.08.09.14.11.18,0,.02.01.03.01.04l-.07-.05c-.1-.09-.23-.23-.33-.34-.21-.24-.27-.37-.22-.17v-.02c0,.06-.02.1-.06.13-.07-.07.01-.11-.05-.24-.12.18-.08-.09-.53-.22-.04-.48-.92-.59-1.13-1.02l-.03.09c-.14.01-.08-.11-.13-.18-.03.06.05.13-.03.13-.81-.42-1.48-1.16-2.2-1.75-.27-.21-.42.27-.65-.15l.19-.07c-.68-.22-1.16-.8-1.81-1.04.05,0,.08-.05.14-.01-.02-.09-.13-.16-.24-.21-.14-.06-.12.01-.18.03-.02-.03.06-.07.09-.11.06-.04-.21.04-.09-.02.02,0,.05-.01.07-.01-.08.01-.03-.04-.22,0,.06-.04-.23-.08-.11-.1-.31-.07.24,0-.15-.11.4.11.36.07.32-.03.06.05.1.04.17.12.01,0,.02-.05-.05-.15.06.12.22.01.36-.08.13-.09.24-.17.39-.03.48-.29.93-.52,1.37-.72.05.22-.5.19-.41.41.41-.23.6-.5,1.05-.59.12,0-.03.11-.06.16.41-.23.85-.26,1.21-.51,0,.02-.03.06-.06.09.07-.03.19-.03.15-.12l-.07.05c-.17-.1.21-.4.2-.48-.04.32.41-.06.32.36.04-.04.09-.1.06-.16.08,0,.12.02.07.12.26-.14.13-.22.38-.3.01.05-.03.08-.04.15.1-.13.19-.27.42-.3,0,.03.03.06-.03.08.18-.07.31-.18.46-.28.13-.1.22-.17.36-.16-.12.27.07.05,0,.27l.11-.1s.02-.07.02-.1c.08-.02.32-.25.36-.19l-.17.14.23-.11s-.01-.05-.02-.07c.26-.19.29-.34.43-.34-.08.05.17-.05.04.11h0c.18-.12.4-.26.41-.22-.14.11-.47.37-.56.45.42-.3.35-.16.91-.52-.15.09-.43.29-.48.32l.43-.28-.02.02c-.14.11-.21.16-.42.3-.18.17.73-.51.29-.13-.02,0-.08.04-.11.05-.27.24-.08.23-.37.47-.43.22,0-.08-.38.14-.02.05.02.09,0,.17,0,.08-.06.2-.18.31l.06-.04c.15.02.06.08-.04.12-.11.05-.21.07-.2.16,0-.04-.1-.11-.08-.09-.14.1-.31.47-.51.83l-.02-.09c-.16.09-.31.32-.46.44.02.09-.06.16.06.17-.66.18-.53.96-1.1,1.13.04-.05.05-.15.02-.11l-.23.37c.11.05.09,0,.22,0,.02.09-.02.21-.09.29.06-.2-.14-.12-.25-.1.04.01.05.06.08.08-.3.04.15.18-.15.32l-.04-.05c-.05.11-.06.24-.15.32-.14-.05.03-.13-.05-.21-.11.14-.03.42-.23.46.02-.08.09-.16.1-.24-.23.03-.21.07-.31.15h.01s-.24.17-.24.17l.08-.03c.13.39-.23.38-.25.75.02-.36-.07-.12-.17-.23-.08.03-.19.09-.2.03,0,.18-.22.11-.21.38-.04-.02-.1.11-.17,0-.09.16.09.02.13.07-.05.32-.57.37-.65.82-.15.32-.06.48-.2.77-.13.03-.08-.18-.08-.18-.17.09-.24.19-.3.35-.01-.05-.06-.05-.13-.05-.07.11.08.18-.09.27-.02-.06-.06-.14-.07-.23-.06.15-.09.32-.16.47-.09-.02-.04-.16-.04-.24-.09.16-.24.4-.17.53l.11-.06c-.04.05-.11-.05-.1-.1.02-.19.18-.14.22-.11l-.05.11c.29.1.26-.38.42-.54l.1.21.02-.29c.07,0,.18.05.14.15.18-.06.04-.16.21-.19.02,0,.03.01.02.03l.06-.16c.01.05.13.07.04.13.28-.14.18-.45.37-.44v.03c.2-.35-.1-.13-.04-.47l.42.09-.09-.13s.09-.08.13-.03c.02-.18-.07-.02-.09-.15.23-.06.3-.46.52-.34-.04-.13-.19.09-.12-.13.24.12.12-.22.33-.28.07.13-.1.21.11.15-.1-.23.26-.24.33-.38-.13-.12.16-.3.27-.54.04.05.39-.3.59-.44l.02.02c-.11-.15.07-.32.16-.48.08.08.09.13.07.23l.11-.13c-.02-.07,0-.13.04-.23l.08.12c.14-.18.17-.45.42-.61-.09-.09-.42-.05-.29-.34.06.04.16.1.13.18,0-.03.02-.11.07-.13v.17c.13-.07-.02-.11.06-.19.07.07.1-.01.15.05,0,.03-.09.04-.09.1.09-.08.23-.15.31-.14-.05-.03-.1-.09-.06-.16.14-.18.14.02.26-.05-.02-.09.13-.15.02-.25.04-.05.1-.01.15,0,.02-.13.33-.43.13-.43l-.03.02v-.02s0,0,0,0h0c.13-.39.57-.54.77-.88l.04.03c.14-.25.39-.52.38-.67.05-.05.24-.15.31-.13.1-.17.01-.16.36-.44,0,.14.19-.1-.05.16.26-.25.48-.39.43-.54.17-.01.49-.34.52-.43l-.35.27c.07-.11.19-.23.31-.36l.34-.14c.35-.3.47-.48.49-.59.03-.11-.03-.14.07-.27-.16.06-.2.05-.1-.09-.49.28.14.04-.41.37-.18.04.08-.3-.04-.26-.28,0-.92.56-1.2.59-.04.07-.28.32-.6.49-.18.04,0-.26.25-.4.08-.03.09-.01.06.02.12-.06.29-.15.26-.2l-.13.1c-.06-.04-.51.11-.31-.06-.31.16-.2.17-.06.16-.32.01-.61.2-1,.27.06.01.09.08.03.1-.56.11-.27.21-.61.35-.2-.03-.03-.22-.28-.05-.18,0-.08-.14-.03-.21-.2.19-.47.08-.62.1l.11-.09c-.07.05-.13.07-.19.09l.11.09c-.08,0-.14.03-.16-.02-.05.1.12.17,0,.32-.12-.02-.28.16-.36.02.33-.05-.08-.14.17-.25-.04.03-.11.05-.19.06-.02-.01,0-.03.02-.05-.34-.04-.08.21-.39.31.01-.1-.12-.14-.17-.1.12-.04.11.12.01.22-.22,0-.2.12-.3.15h.13c-.01.09-.11.11-.24.18-.03-.06.11-.09.05-.1-.1.2-.4-.04-.58.13-.12-.02-.06-.16-.16-.16-.2.19-.3-.03-.52.14.11.09.11.06-.03.23l.39-.22-.21.25c.13-.04.24-.16.32-.16-.1.13-.09.1,0,.18-.23-.11-.31.21-.54.16l-.09-.28c-.34-.03-.48.32-.89.38h.14c-.01.14-.23.1-.34.19-.02-.1-.11-.11-.18-.15.03.07-.28.09-.26.29l-.21-.07c-.34.06-.23.37-.61.46.07-.14-.14-.14.11-.3-.12.04-.3.08-.26.14-.14-.02-.32.25-.53.22-.02.05.07.13-.09.17-.04,0-.06-.03-.06-.03.05.03-.15.12.12.15-.38-.04-.69.07-.94.17l-.19.07s-.07.02-.02.04l.07.06c.09.07.13.13.09.19.34.19.7.4.94.56-.05,0-.06.02-.09-.01.25.28.48-.01.71.27.08.25-.24-.06-.17.06-.11.12.09.24.18.27.12.04.26.09.3.23h-.05c.08.17.41.12.62.29,0,0-.03.02-.03.04.25-.03.57.12.82.24-.14.06-.14-.01-.17.12.11.05.09-.19.3-.09.02.1.13.25.07.37l-.19-.12c0,.21.24.16.32.25l-.06.06c.3.17.41.01.71.23v-.07c.28-.05.08.19.33.18l-.06.2c.14.04.49.1.71.21-.19.05-.47-.05-.66-.07.11.08.38.24.49.2-.05-.01-.14-.01-.16-.07.22-.04.44.02.65.17-.25.29.51.46.5.82.46.14.73.57,1.19.85,0-.35.14.08.28-.19.12.05.15.09.15.11l.21.36c.03.12-.14-.01-.17.05.11.09.11.13.13.19,0,.05-.01.1.12.24,0-.14.21-.05.44.16l-.29-.36c.29.1.38.23.5.39.12.16.27.33.52.38l-.15.02c.27.1,1.16.7,1.05.29.06.07.19.21.12.21.12.04.27.1.33.06.04-.05.1-.09.13-.14l.02-.04h0s0,0,0,0h0c-.24-.29-.07-.08-.12-.15h0s0,0,0,0h0s0-.02,0-.02v-.03s0-.08,0-.12c0-.07,0-.13.05-.16l.06.08c0-.07-.1-.22-.02-.22.03.03.07.09.08.07-.01-.05-.1-.31-.02-.35l.09.17s.08-.04.05-.12c-.02-.08-.05-.16-.09-.24-.07-.16-.15-.31-.25-.46-.2-.31-.4-.56-.53-.82.12.01.15-.11.13-.31-.01-.09-.04-.2-.06-.31-.03-.11-.03-.13-.04-.19h.03c-.18-.52-.52-.79-.79-1.21.1-.38-.31-1.01-.38-1.52,0,.09-.16.05-.22-.02,0-.13-.27-.24-.07-.3v.04c.16-.16.02-.36-.05-.53l-.26.07c.16-.6-.63-1.13-.42-1.51-.11-.08-.16-.22-.27-.3l.13-.05c-.09-.32-.14-.47-.33-.84l.13.04c-.08-.21-.49-.11-.58-.3l.17-.14c-.17-.39-.1-.71-.58-1.34.03-.02.08-.05.13.05-.12-.29-.45-1.42-.53-.87.08-.29-.28-.7-.41-.79l.04-.25c-.15.11-.14.24-.28.04-.03-.12-.04-.37.01-.17-.06-.23-.08-.2-.1-.16-.01.02-.02.03-.04.01,0,0-.02-.03-.03-.06-.01-.04-.03-.1-.04-.06,0-.16.01-.2.03-.24-.03-.13-.05-.04-.06.02-.01.06-.02.11-.02.17,0,.11,0,.26-.01.48-.03.31-.15.4-.22.18.02.22.03.58-.03.66-.03-.07-.03-.19-.03-.25-.19.35-.09.95-.27,1.08-.04-.04-.06-.05-.08-.03.11-.4.21-.71.2-.67-.07-.22-.19.13-.22-.45-.04.51-.01,1.2-.14,1.47-.01,0-.03.01-.05.01v-.05c-.04.07-.05.15-.04.23-.05.1-.08.16-.11.27-.13.06-.13.27-.17.38.14.03.08.16.23.06-.01.01-.01-.02,0-.1,0-.02,0-.04,0-.05h0c.02-.08.05-.19.08-.31.03.17.06.27-.04.36.07.08.15.16.18.21-.23.09-.41.35-.54.36-.01.35-.16.78.04,1.06,0,.1-.1.09-.15.11-.01-.06.01-.12-.02-.16.01.2-.12.56.04.65-.14.21-.13-.18-.19.15l-.04-.06c-.46.55.17,1.15-.38,1.75.04-.04.05-.06.09-.07-.38.75-.3,1.68-.77,2.4-.11.21,0,.26.04.42h-.16s.1.29.1.29c.03.36-.51.48-.4.96l.11-.03c-.06.15-.07.49-.18.44.01.02.09.08.02.12l-.08-.02.03.41c-.13.27-.29-.13-.42.29-.01.16.1.5.17.46.02-.06.09-.15.17-.13v.15c.22.09.42.26.67-.05l-.07-.28.13-.05-.05.21c.13-.09.06-.19.02-.29.06,0,.11-.03.15-.07l-.15-.3c.1,0,.15.15.24,0-.07-.14-.23.05-.24-.15.13-.09.21-.03.16-.19.06,0,.09.04.1.1-.04-.14.06-.33-.04-.42.16-.09.08-.42.29-.35-.04-.05-.11-.26-.09-.37.2.27.13-.41.39-.29-.19-.21.05-.57,0-.87.01.02.04.06.02.08.06-.15.14-.17.21-.26-.18-.07-.16-.32-.24-.48.23-.13.19.17.38.16-.16-.03-.07-.36-.21-.33.15-.11.09-.11.26-.14-.23-.09,0-.14-.12-.3.17-.17.24,0,.23-.24.1-.09.13.14.13.14ZM5.81,3.33h0s0,.05,0,.07c0-.01,0-.03,0-.07ZM5.87,3.09s-.02.06-.03.1c-.04-.04-.07-.11-.06-.14.02.05.06.02.09.04ZM4.79,3.37c0-.07.04-.11.07-.12-.02.07-.02.1-.02.15h.01s-.05-.02-.06-.03Z"/>
      <path class="cls-1" d="M4.93,3.55s0,.02,0,.03c.02-.01.03-.02.04-.03l-.04-.04v.04Z"/>
      <path class="cls-1" d="M8.79,6.4h0s-.02,0-.03,0c0,0,.01,0,.02,0Z"/>
      <polygon class="cls-1" points="7.35 6.06 7.38 6.04 7.34 6.02 7.35 6.06"/>
      <path class="cls-1" d="M6.78,8.05s-.03,0-.05,0c0,0,.03,0,.05,0Z"/>
      <path class="cls-1" d="M6.04,8.87l-.14.09c.07-.03.11-.06.14-.09Z"/>
      <path class="cls-1" d="M5.44,9.48s.02.04.04.05h0s-.04-.05-.04-.05Z"/>
      <path class="cls-1" d="M6.61,5.31l-.03.02c-.06.05-.02.02.03-.02Z"/>
      <path class="cls-1" d="M9.86,3.88c-.07.05-.14.1-.21.14.03,0,.05,0,.21-.14Z"/>
      <polygon class="cls-1" points="2.82 6.74 2.82 6.74 2.81 6.74 2.82 6.74"/>
      <path class="cls-1" d="M9.54,4.05s.04,0,.11-.03c-.02,0-.04-.01-.11.03Z"/>
      <path class="cls-1" d="M3.02,12.26l-.03.03s.01.01.01.02l.02-.05Z"/>
      <path class="cls-1" d="M3,12.3l-.02.05s.02-.03.02-.05Z"/>
      <path class="cls-1" d="M2.95,12.45l.03-.1s-.05.05-.03.1Z"/>
      <path class="cls-1" d="M3.8,11.44l-.03-.04s.01.03.03.04Z"/>
      <path class="cls-1" d="M4,11.17c-.06.05-.21.09-.26.19l.02.03c-.02-.09.26-.11.24-.23Z"/>
      <path class="cls-1" d="M5.4,10.48l-.22.19c.07,0,.17,0,.1.1.36-.17-.14-.02.12-.29Z"/>
      <path class="cls-1" d="M6.04,9.85c-.08.13.06.05.08.08.02-.11.03-.13-.08-.08Z"/>
      <path class="cls-1" d="M10.39,4.67h.17c.09-.14-.07,0-.17,0Z"/>
      <path class="cls-1" d="M9.88,4.25l-.23.15.25-.12s-.01-.02-.02-.03Z"/>
      <polygon class="cls-1" points="12.9 2.08 12.9 2.11 12.93 2.04 12.66 2.16 12.92 2.05 12.9 2.08"/>
      <path class="cls-1" d="M.1,6.51h.29c-.16-.07-.58-.14-.29,0Z"/>
      <path class="cls-1" d="M4.84,9.56c0,.09.08.21.19.19-.08-.07-.13-.18-.19-.19Z"/>
      <polygon class="cls-1" points="8.99 6.71 9.08 6.77 8.97 6.63 8.99 6.71"/>
    </g>
  </g>
</svg>