<?xml version="1.0" encoding="UTF-8"?>
<svg id="Layer_2" data-name="Layer 2" xmlns="http://www.w3.org/2000/svg" viewBox="0 0 12.34 13.84">
  <defs>
    <style>
      .cls-1 {
        fill: #202020;
      }
    </style>
  </defs>
  <g id="Layer_1-2" data-name="Layer 1">
    <g>
      <g>
        <path class="cls-1" d="M.76,1.72s-.1-.02-.09.03l.11.06-.02-.09Z"/>
        <path class="cls-1" d="M.5,2.07c.05.07.14.16.25.14-.1-.08-.05-.09-.18-.18,0-.06.05-.09.09-.08-.03-.02.04-.08-.03-.13-.1.06-.11.15-.05.26-.03.02-.06,0-.08-.02Z"/>
        <path class="cls-1" d="M.51,7.66v-.04s0,.02,0,.04Z"/>
        <path class="cls-1" d="M1.77,10.94s-.03-.02-.04-.02c.02.02.04.03.04.02Z"/>
        <path class="cls-1" d="M2,11.52s0-.02-.01-.03c0,.02,0,.03.01.03Z"/>
        <path class="cls-1" d="M.51,7.66v.1s0-.05,0-.1Z"/>
        <path class="cls-1" d="M.69,2.86s-.01-.04-.02-.05v.05s.02,0,.02,0Z"/>
        <path class="cls-1" d="M.14,6.15v-.03s-.04-.01-.05-.02l.05.05Z"/>
        <path class="cls-1" d="M.04,4.96s.1.03.14.04c-.04-.01-.06-.03-.07-.06-.02,0-.04,0-.07.01Z"/>
        <path class="cls-1" d="M.26,3.09v-.03s0,.03,0,.03Z"/>
        <path class="cls-1" d="M.24,7s-.03.01-.03.02c.01,0,.02,0,.03-.02Z"/>
        <path class="cls-1" d="M1.85,2.36v-.02s0,.02,0,.02Z"/>
        <polygon class="cls-1" points=".54 1.66 .56 1.66 .58 1.61 .54 1.66"/>
        <path class="cls-1" d="M2.6,12.49h0s-.02,0,0,0Z"/>
        <path class="cls-1" d="M11.05,9.14c-.13.06-.01-.22-.18-.11.04,0,.06.21.18.11Z"/>
        <path class="cls-1" d="M.67,2.89v.05s0-.04,0-.05Z"/>
        <polygon class="cls-1" points="10.87 9.03 10.87 9.03 10.85 9.04 10.87 9.03"/>
        <path class="cls-1" d="M5.04,13.72s-.02-.03-.04-.03c0,0,.01.02.04.03Z"/>
        <path class="cls-1" d="M3.2,12.83l.02.04s-.02-.03-.02-.04Z"/>
        <path class="cls-1" d="M5.96,13.31s.04,0,.07-.02h-.01s-.02.03-.05.02Z"/>
        <polygon class="cls-1" points="6.9 12.9 6.88 12.89 6.85 12.9 6.9 12.9"/>
        <path class="cls-1" d="M5.01,1.73s-.06-.04-.08-.06c.04.06-.09.14.08.06Z"/>
        <path class="cls-1" d="M.63,2.86s.04.02.04.03v-.03s-.03,0-.04,0Z"/>
        <path class="cls-1" d="M5.73,12.57l.14-.05s-.09.03-.14.05Z"/>
        <path class="cls-1" d="M10.99,3.5h-.04s.03,0,.04,0Z"/>
        <path class="cls-1" d="M6.28,12.32s.07.03.11.03c0,0,0-.02,0-.03h-.11Z"/>
        <path class="cls-1" d="M4.93,1.67h0s0,0,0,0Z"/>
        <path class="cls-1" d="M3.94,2.25c.16-.04.04-.14.06-.22.18-.08.11.07.19.12.11-.06.16-.21.24-.23.01.02.03.02.02.05.08-.14.36-.12.44-.31.01,0,.02.01.03.02-.05-.05-.08-.11-.09-.15.06-.03.08-.13.14-.06-.04.02-.03.05-.04.08l.05-.06c.11.08-.07.08-.04.16.12-.1.23-.25.34-.27.08.1-.22.15-.04.18l-.18.03c.2.12-.1.03.09.16.23-.06.21-.16.43-.24.01-.08-.06-.08-.05-.16.2-.25.43.11.41-.07-.01-.09-.03-.26.07-.23,0,.06,0,.11-.01.17.06-.02.06-.28.13-.21h0s0,.02,0,.02c-.02.04-.07.08-.06.09.02.06.03,0,.04-.03.01-.04.03-.08.04-.06l-.04.15s.05.01.1.03c.09.06.21.16.3.24-.04.01-.09,0-.08.08.28.2.52.49.75.74l.16-.02s.02.07-.02.07c.08.1.04-.05.11-.05.06.03.05.1,0,.1.24.05.63.16.79.35h-.05c.15.12.27-.09.38.06h-.04c.34.2.77.24,1.01.47.09-.12.36.15.43-.04.19.14.12.18.42.3.08.02.14-.11.25-.11v.11s.14-.09.14-.09l.06.14h.1s-.07-.07-.06-.1c.15-.02.35.11.35.17.12-.02.09-.05.17-.08-.03.04-.05.05-.07.08.1-.1-.06.11.03.02.01-.02.05-.06.07-.08,0,.05-.03.1,0,.12l-.07.03s0,.01,0,.03l.02.16c.02.13.02.27.02.4.04-.1.17-.07.18,0l-.11.03c.07.05.04-.08.13.03-.02.1-.13.06-.17,0l.04.13s-.05-.02-.09-.03c.07.05-.13.21,0,.29h-.03c-.02.27.02.4-.01.62.1.02.06.1.13.18-.06.16-.15.33-.18.52.02.14.07.06.12.13-.09,0-.12.19-.16.07-.04.23-.03.3-.05.61.04-.02.07-.05.09-.03,0,.06-.07.11-.11.09v-.02c.03.37-.47.66-.4.96v-.02s-.02.29-.02.29c-.06.11-.03-.1-.12-.03.04.34-.22.41-.24.67-.31.04-.3.6-.6.71l.06.02c.01.09-.07.04-.11.08.04.02.09-.03.09.03-.12.25-.31.48-.54.65-.23.18-.43.38-.68.53-.17.12.12.32-.18.37l-.02-.14c-.12.19-.28.33-.45.46-.18.11-.37.22-.51.37,0-.04-.01-.07.02-.09-.12-.03-.27.17-.24.23-.06.03-.04-.05-.09-.06-.1,0-.13.21-.21.16-.01,0,.01-.03.02-.05-.03.06-.25.1-.15.16-.16.02-.25.16-.39.16-.03.13-.26.06-.23.21-.05-.15-.3,0-.36.1.01-.06-.1-.01-.08-.09-.11.03-.2.09-.15.16-.26-.12-.36.26-.54.06-.15.09-.29.17-.44.24-.07.06-.13.1-.2.05.07-.12.13.04.14-.15-.03.05-.06.08-.12.08-.08-.02-.2-.08-.29-.18-.04-.07.07-.02.11-.03-.26-.13-.4-.37-.64-.49.01,0,.04,0,.07,0-.04-.03-.07-.1-.11-.04l.05.02c-.02.13-.3.01-.34.04.21-.08-.13-.23.15-.3-.03-.02-.08-.02-.12.01-.02-.05-.01-.08.06-.08-.15-.11-.16,0-.27-.13.03-.02.06,0,.1-.02-.11-.02-.21-.04-.27-.17.02,0,.03-.04.06,0-.15-.18-.4-.21-.49-.47.17-.02,0-.1.09-.19l-.11-.09-.02.08c-.07-.1-.21-.14-.23-.26l.1.05c-.05-.06-.1-.12-.15-.18,0,.05.02.09.03.14-.12-.07-.14.1-.19-.06.03.02-.06-.11-.02-.21h0c-.07-.03-.14-.07-.15-.16.03-.04.14-.05.15-.08-.13,0-.17-.24-.31-.25.04.01.1-.02.11-.03h-.1c0-.07.01-.09.06-.1-.06-.17-.13.12-.15-.1.01.01.02,0,.05.02-.05-.2-.21-.34-.25-.53.1-.1.1.14.17.04-.14-.23-.35-.47-.41-.73v.05c-.19.02.02-.22-.1-.32.02.03.11.01.09,0-.04-.18-.14-.34-.27-.6l.05.02c.02-.11-.04-.28-.05-.4-.05-.02-.06-.09-.12-.04.18-.4-.25-.65-.08-1,0,.04.05.08.05.05l-.08-.26c-.08.03-.04.04-.1.1-.05-.03-.1-.1-.11-.17.07.12.13-.02.17-.07-.02.01-.05,0-.08,0,.13-.16-.16,0-.08-.21h.04c-.03-.06-.09-.13-.08-.21.09-.04.05.07.12.07-.01-.11-.19-.2-.1-.31.03.05.03.11.06.16.1-.12.08-.13.09-.21h0s.04-.18.04-.18l-.03.05c-.25-.13-.06-.28-.23-.46.16.18.09.03.2.04.02-.05.06-.12.09-.1-.08-.09.07-.14-.05-.27.03,0,0-.09.09-.07-.02-.11-.06.03-.1.02-.11-.18.16-.4,0-.66-.06-.22-.18-.27-.21-.48.06-.06.12.07.12.07.06-.11.06-.19.04-.29.03.02.05,0,.1-.02,0-.08-.12-.07-.05-.17.04.02.09.05.13.1-.02-.1-.07-.2-.09-.31.06-.02.08.07.12.11-.01-.12-.02-.3-.11-.35l-.04.07s.08-.01.1.02c.06.11-.05.14-.08.14v-.07c-.22.05-.02.29-.05.44l-.14-.08.1.16s-.13.04-.14-.03c-.08.1.04.1-.05.18-.01,0-.02,0-.02,0l.03.11s-.1,0-.08-.05c-.1.18.1.31-.02.37v-.02c.03.26.1.03.22.23l-.27.12.11.03s-.01.08-.06.07c.07.1.05-.02.11.04-.1.13.03.35-.14.38.08.05.07-.12.12.01-.18.04.03.16-.06.27-.09-.03-.04-.15-.13-.03.16.07-.02.23.01.33.13,0,.07.21.12.38-.04,0-.05.32-.09.48h-.02c.13.02.11.18.16.29-.08,0-.11-.01-.15-.07l.02.11s.07.05.1.12l-.1-.02c.03.15.16.28.12.47.09,0,.22-.18.31,0-.05.01-.13.04-.15-.01,0,.02.05.05.03.09l-.09-.06c-.02.09.07.03.08.1-.07.01-.04.06-.1.06,0-.02.02-.06-.01-.08,0,.08-.03.18-.07.22.04-.01.09-.02.11.04.03.14-.07.06-.1.16.06.03.03.13.13.11,0,.04-.04.06-.06.08.06.06.1.34.18.23v-.02s0,.01,0,.01h0s0,0,0,0c.16.21.06.51.18.74h-.03c.09.14.13.31.23.39.01.04-.03.12-.07.11.06.1.1.1.1.27-.09-.09-.04.06-.08-.09.02.15-.03.2.13.31-.1-.02-.06.14,0,.2l.02-.12c.04.07.06.13.09.2h-.12c0,.35.43.41.33.71.11.03-.03-.17.09-.15.05.13-.03.33,0,.37.04.2.23.07.29.27.02-.04.11-.12.21-.01.06.12-.06.23-.13.18-.02-.03-.02-.05,0-.05-.04-.03-.08-.07-.09,0h.04c0,.08.11.23.03.23.09.07.08,0,.06-.08.05.18.15.23.22.41,0-.04.03-.09.04-.06.11.25.12.06.25.19.01.12-.14.06.01.17.03.11-.07.09-.13.07.17.08.15.28.2.37l-.08-.05s.08.07.1.1l.03-.09c.02.05.05.09.02.11.08,0,.08-.12.21-.09.01.08.17.13.11.22-.12-.19-.07.09-.2-.04.03.02.06.05.09.1,0,.01-.02,0-.04,0,.07.22.16-.01.3.15-.06.02-.05.12-.02.14-.06-.07.05-.1.14-.08.06.13.13.08.18.14l-.04-.07c.06-.02.11.03.19.08-.03.04-.09-.04-.08,0,.15,0,.09.25.26.3.02.08-.07.09-.04.15.18.05.08.19.27.25.01-.1,0-.09.14-.07-.09-.05-.18-.09-.26-.14l.22.03c-.07-.05-.18-.08-.21-.12.11,0,.09.02.1-.06,0,.18.23.09.28.24l-.13.16c.06.1.24.19.37.24.07.05.15-.02.23-.04.08-.03.16-.06.25-.07h-.12c.05-.1.19-.07.26-.12.01.07.07.08.12.11-.02-.05.19-.05.18-.19l.14.05c.22-.03.18-.26.38-.29-.04.09.07.11-.05.2.07-.02.13-.02.12-.07.05.03.15-.14.23-.1.02-.04,0-.11.07-.14.01,0,.01.03.01.03-.01-.03.09-.09,0-.14.27.11.53-.25.78-.16.13-.08.29-.17.4-.24,0,.02.02.03,0,.04.19-.04,0-.24.22-.28.15.04-.07.11.01.11.14.18.21-.16.4-.13l-.02.03c.14,0,.19-.22.35-.3,0,0,0,.02.02.03.05-.15.2-.33.31-.47.01.1-.03.09.05.14.05-.06-.11-.1,0-.22.07,0,.18-.03.26.03l-.11.1c.14.05.14-.13.22-.16l.03.05c.16-.16.07-.26.26-.41h-.05c0-.2.13-.04.15-.21l.13.07c.04-.09.11-.32.19-.45.02.13-.07.3-.1.43.06-.06.19-.23.17-.31-.01.03-.02.09-.06.1,0-.15.04-.29.16-.41.2.2.33-.31.56-.29.09-.32.41-.47.55-.81-.24.01.04-.1-.15-.18.03-.08.04-.11.06-.11l.23-.16c.08-.03,0,.09.05.11.1-.16.12-.03.23-.11-.08-.01-.07-.1,0-.19l-.16.09c.02-.27.25-.13.25-.42l.03.1c.01-.14.19-.46.07-.64.03-.01.1-.02.09.04.13-.3.03-.73.2-.94l.04.04c0-.06-.06-.12,0-.18.02,0,.05.04.05,0-.01-.04-.06-.17-.01-.24l.04.08c.13-.29-.04-.49-.04-.75.15.03.23-.21.28-.33h.02c.08-.35-.07-.62-.1-.95.09-.1.11-.27.12-.46v-.29c.02-.12.03-.23.04-.36-.02.09-.12,0-.14-.07.02-.14-.13-.26,0-.33v.05c.06-.09.08-.2.07-.32-.02-.1-.21-.05-.3-.08l-.15.17c-.08-.08-.22-.11-.38-.13-.15-.02-.2,0-.31,0-.18,0-.35,0-.42-.12-.08.03-.17.02-.25.06l.02-.1c-.19-.06-.29-.1-.53-.13l.07-.06c-.13-.04-.24.24-.37.2v-.15c-.24-.07-.42-.26-.69-.23.01-.02.03-.06.07-.05-.11-.04-.36-.26-.41-.06.05-.12-.22-.11-.36-.13l.06-.08c-.15.05-.18.08-.33.03-.03-.03.01-.08.04-.04-.08-.11-.13.03-.23-.1l.08-.02c-.1-.08-.11-.04-.21-.02-.09-.01-.19-.16-.15-.24-.05.03-.14.05-.19-.02.01-.03.05-.03.06-.03-.13-.18-.31-.12-.36-.29.02-.03.02-.04.02-.06.12.11.22.21.2.2.06-.07-.03-.17.13-.19-.12-.02-.36-.03-.42-.16,0-.01,0-.02.01-.03h.02s-.04-.04-.07-.05c-.02-.04-.02-.07-.05-.1.02-.03,0-.06-.02-.1-.05-.05-.11-.14-.15-.19-.06.09-.13-.04-.1.14,0-.02.02,0,.07.06.01.01.02.03.03.03h-.01s.08.09.13.14c-.08-.02-.12,0-.17-.14-.08,0-.15.02-.18.02.01-.2-.12-.57-.12-.73,0,0,0,0,0-.01-.28.23-.67.49-.72.74-.05.06-.09,0-.13-.02.02-.03.06-.05.07-.09-.1.12-.3.19-.27.32-.16.02.02-.15-.15-.03v-.05c-.43,0-.46.59-.99.49.03,0,.05,0,.06.03-.51.05-1.01.38-1.55.24-.15-.03-.16.05-.24.12l-.04-.1-.15.13c-.22.09-.36-.26-.64-.11l.03.07c-.1-.02-.31,0-.29-.07-.01.01-.04.07-.07.03v-.06s-.25.05-.25.05c-.17-.08.07-.21-.18-.27-.1,0-.3.09-.28.13.03.01.09.06.07.12h-.1c-.07.15-.2.29.02.47l.19-.06.04.09-.15-.03c.07.09.13.04.2,0,0,.04.02.08.05.1l.19-.13c.01.07-.1.11.01.17.09-.06-.05-.15.08-.18.07.09.04.14.14.09,0,.04-.02.07-.06.08.09-.04.23,0,.28-.08.08.1.29,0,.27.15.03-.03.16-.12.23-.12-.15.18.29.01.26.21.1-.18.39-.08.57-.2,0,.01-.03.04-.04.04.11,0,.14.05.22.07,0-.14.16-.18.23-.29.15.11-.05.17,0,.29-.02-.11.21-.15.15-.23.11.06.09.02.16.13-.02-.17.09-.04.14-.17.16.05.07.15.21.06.09.03-.04.13-.04.13ZM6.58,1.4h0s-.05-.04-.06-.05c.01.01.03.02.06.05ZM6.81,1.62s-.06-.06-.1-.09c.02-.03.05-.05.07-.03-.03,0,.01.07.03.12ZM6.86.7s.03.05.02.06c-.02-.01-.03-.03-.06-.05h-.01s.03-.01.05-.02Z"/>
        <path class="cls-1" d="M6.69.69s-.01,0-.02-.02c0,.02,0,.04,0,.05h.04s-.02-.03-.02-.03Z"/>
        <path class="cls-1" d="M.51,7.62h0s0,0,.01,0c0,0,0,0,0,0Z"/>
        <polygon class="cls-1" points="10.64 3.49 10.65 3.47 10.62 3.49 10.64 3.49"/>
        <path class="cls-1" d="M.56,5.95s.02-.01.02-.02c0,0-.01.01-.02.02Z"/>
        <path class="cls-1" d="M.54,5.25l.03-.1s-.03.08-.03.1Z"/>
        <path class="cls-1" d="M.56,4.71s-.03,0-.04,0h0s.04,0,.04,0Z"/>
        <path class="cls-1" d="M3.64,12.34h.02s.02.01-.02,0Z"/>
        <path class="cls-1" d="M1.94,10.48s.06.03.08.05c-.02-.04-.03-.07-.08-.05Z"/>
        <polygon class="cls-1" points="5.71 12.57 5.71 12.58 5.73 12.57 5.71 12.57"/>
        <path class="cls-1" d="M2.08,10.63s-.03-.08-.06-.1c.01.04.02.08.06.1Z"/>
        <path class="cls-1" d="M.75,2.39v-.03s0,0,0,0v.03Z"/>
        <path class="cls-1" d="M.75,2.36v-.03s-.01.02,0,.03Z"/>
        <path class="cls-1" d="M.72,2.26l.02.06s0-.05-.02-.06Z"/>
        <path class="cls-1" d="M.62,3.09h.03s-.02,0-.03,0Z"/>
        <path class="cls-1" d="M.61,3.31c0-.05.09-.12.07-.2h-.03s-.11.14-.05.2Z"/>
        <path class="cls-1" d="M.14,4.2l.03-.19s-.09.07-.1-.01c-.12.23.09-.05.06.2Z"/>
        <path class="cls-1" d="M.08,4.78c-.02-.1-.06,0-.08,0,.04.06.05.08.08,0Z"/>
        <path class="cls-1" d="M.81,8.9l-.09.02c.04.07.03-.01.09-.02Z"/>
        <polygon class="cls-1" points="1.53 9.46 1.55 9.37 1.46 9.37 1.53 9.46"/>
        <path class="cls-1" d="M1.14,10.16l-.03-.03s.05.07.09.1l-.06-.08Z"/>
        <path class="cls-1" d="M6.77,13.05l-.07-.09s0,.16.07.09Z"/>
        <path class="cls-1" d="M9.28,11.26c.07.02.15-.02.15-.1-.05.05-.13.07-.15.1Z"/>
        <polygon class="cls-1" points="11.65 2.71 11.78 2.69 11.56 2.7 11.65 2.71"/>
      </g>
      <g>
        <path class="cls-1" d="M6.25,2.18s-.06-.08-.08-.04l.05.11.03-.07Z"/>
        <path class="cls-1" d="M5.89,2.2c0,.08,0,.19.1.25-.03-.12.01-.09-.03-.23.03-.04.08-.02.1.02,0-.03.07-.02.04-.09-.1-.03-.16,0-.17.11-.03,0-.04-.04-.05-.06Z"/>
        <path class="cls-1" d="M1.92,3.36h.04s-.03,0-.04,0Z"/>
        <path class="cls-1" d="M1.44,5.81s-.02-.03-.03-.03c0,.02.02.03.03.03Z"/>
        <path class="cls-1" d="M1.37,6.27s0-.02,0-.03c0,.01-.01.02,0,.03Z"/>
        <path class="cls-1" d="M1.92,3.36l-.11-.04s.06.03.11.04Z"/>
        <path class="cls-1" d="M5.57,2.78s.01-.03.02-.05l-.02.03v.02Z"/>
        <path class="cls-1" d="M3.08,3.17h.02s0-.03,0-.05l-.03.05Z"/>
        <path class="cls-1" d="M3.89,2.94s0,.1.01.14c0-.04,0-.06.02-.08,0-.02-.01-.04-.03-.06Z"/>
        <path class="cls-1" d="M5.19,2.54v-.02s0,.02,0,.02Z"/>
        <path class="cls-1" d="M2.47,3.23s0-.03-.01-.03c0,.01,0,.02.01.03Z"/>
        <path class="cls-1" d="M6.35,3.13h.01s-.02,0-.01,0Z"/>
        <polygon class="cls-1" points="6.12 2 6.13 2 6.18 1.98 6.12 2"/>
        <path class="cls-1" d="M1.36,7.12h0s-.01-.01,0,0Z"/>
        <path class="cls-1" d="M6.2,12.06c-.12-.04.07-.17-.09-.19.03.03-.04.19.09.19Z"/>
        <path class="cls-1" d="M5.54,2.78l-.03.02s.03-.01.03-.02Z"/>
        <polygon class="cls-1" points="6.11 11.87 6.11 11.86 6.09 11.86 6.11 11.87"/>
        <path class="cls-1" d="M1.92,8.98s.02-.02.03-.03c0,0-.02.01-.03.03Z"/>
        <path class="cls-1" d="M1.65,7.56v.04s0-.03,0-.04Z"/>
        <path class="cls-1" d="M2.34,9.62s0,.03.01.05c0,0,0-.01,0-.01-.02,0-.03-.01-.02-.04Z"/>
        <polygon class="cls-1" points="2.69 10.31 2.7 10.29 2.69 10.27 2.69 10.31"/>
        <path class="cls-1" d="M8.35,4.57s0-.06,0-.09c-.02.07-.14.04,0,.09Z"/>
        <path class="cls-1" d="M5.54,2.73s.01.04,0,.05l.02-.02s-.01-.03-.02-.03Z"/>
        <path class="cls-1" d="M3.05,9.32l.03.11s-.02-.07-.03-.11Z"/>
        <path class="cls-1" d="M8.94,7.8v-.03s0,.02,0,.03Z"/>
        <path class="cls-1" d="M3.25,9.72s-.03.06-.03.09c0,0,.02,0,.03,0v-.09Z"/>
        <path class="cls-1" d="M8.35,4.48h0s0,0,0,0Z"/>
        <path class="cls-1" d="M7.49,4.26c.11.07.12-.07.18-.12.14.05,0,.12.01.2.1.02.22-.04.27,0,0,.02,0,.03-.02.05.14-.05.26.13.42.06,0,.01,0,.03,0,.03.01-.07.04-.13.06-.17.05.02.12-.04.11.05-.03-.01-.05.02-.07.03h.07c0,.12-.09,0-.12.08.12,0,.27-.04.34.02-.02.12-.2-.04-.13.1l-.11-.09c.02.21-.07-.04-.06.18.16.1.21.02.36.11.06-.05.02-.1.08-.15.27-.05.11.34.33.24.07-.06.12-.21.23-.11l-.07.12c.17.04.13-.17.29-.05-.04.05-.14.02-.12.04.1.12.09-.06.18-.05,0,.04,0,.08-.01.12.02-.02.15-.09.27-.11-.05.03-.1.07-.12.1.05,0,.02.06,0,.1-.03.07-.06.02-.12.13l.08.1s-.05.02-.07,0c-.06.07.06.02.09.07,0,.05-.07.05-.09.01.06.17.07.46-.07.59l-.02-.04c-.07.11.16.19.04.28v-.03c-.13.25-.14.56-.36.7.13.09-.15.23.03.32-.16.1-.17.05-.32.22-.03.05.09.13.08.2l-.1-.04.07.14h-.14s0,.07,0,.07c.02-.02.07-.03.09-.01,0,.12-.18.2-.23.17l-.03.26s-.03-.07-.04-.11c.04.17-.11-.03-.08.12.03,0,.05.04.07.05-.08.02-.14.14-.17.24l-.06-.05c-.11.14-.16.34-.27.52.07-.04.17.04.15.1l-.11-.04c.04.07.07-.03.1.08-.06.06-.14-.03-.14-.08l-.02.1s-.03-.04-.07-.07c.04.07-.19.06-.12.18l-.03-.02c-.12.16-.13.26-.23.39.08.06.02.1.05.19-.1.07-.25.12-.34.24-.03.11.04.08.05.15-.07-.05-.16.06-.16-.04-.11.14-.15.16-.26.37.04.01.07,0,.08.04-.02.04-.09.04-.12,0h0c-.09.27-.59.15-.64.41h0s-.11.18-.11.18c-.08.04,0-.09-.08-.09-.09.26-.31.15-.41.33-.24-.17-.42.26-.67.15l.03.05c-.02.07-.07-.01-.11-.02.02.04.07.04.05.08-.08.05-.21.1-.26.11-.04,0-.07.02-.08-.03.03-.02-.16-.24-.27-.39-.09-.11-.29.17-.32-.07l.12-.04c-.31-.12-.41-.47-.68-.64.03,0,.06-.02.08,0,.03-.1-.13-.2-.19-.16-.02-.04.05-.04.06-.09,0-.08-.18-.08-.13-.15,0-.01.03,0,.05,0-.06-.01-.09-.17-.16-.09-.02-.12-.15-.17-.14-.28-.12,0-.05-.2-.2-.14.14-.07.03-.24-.07-.28.05,0,.02-.08.09-.08-.04-.07-.1-.13-.16-.08.1-.21-.27-.23-.07-.4-.16-.2-.31-.4-.4-.61.15-.04.08.24.24.17-.13-.18-.28-.26-.31-.48,0-.06.07.01.11.02-.12-.19-.1-.4-.21-.57.01,0,.03.01.05.03-.01-.04,0-.09-.06-.07l.03.03c-.09.08-.24-.1-.3-.1.21.02.01-.2.29-.15-.02-.02-.06-.05-.1-.03,0-.04.03-.06.09-.03-.06-.13-.13-.07-.15-.19.03,0,.05.02.1.02-.08-.05-.16-.1-.14-.21.02,0,.05-.01.05.02-.03-.18-.21-.28-.17-.49.16.04.04-.07.17-.1l-.05-.1-.06.05c0-.09-.11-.17-.08-.25l.06.06c-.02-.06-.03-.11-.04-.17l-.04.1c-.07-.09-.16.02-.13-.1.01.02,0-.09.07-.15h0s-.09-.09-.06-.16c.04-.02.14,0,.17,0-.11-.04-.04-.22-.16-.27.03.02.1.02.11.01l-.09-.04s.04-.05.09-.05c.01-.13-.16.05-.1-.11,0,.01.02,0,.04.03.03-.16-.07-.3-.02-.44.13-.04.03.13.14.08-.02-.19-.14-.46-.11-.59l-.02.02c-.18-.07.09-.08,0-.18.01.03.1.08.08.06.02-.03-.01-.1-.02-.17.02-.02.05-.04.1-.06v.05c.08.04.15.03.21.04.01-.05.07-.04.04-.11.3.26.51-.18.78,0-.03,0-.06.05-.04.05l.2-.08c-.03-.08-.04-.04-.09-.1.02-.05.07-.1.12-.11-.08.07.02.13.07.16-.01-.02,0-.05-.01-.08.14.12-.02-.16.15-.1v.04c.05-.03.09-.1.15-.1.05.08-.05.06-.03.13.08-.03.12-.21.21-.14-.03.03-.08.05-.11.08.11.08.11.06.18.06h0s.15,0,.15,0l-.04-.02c.03-.27.19-.11.28-.31-.08.19,0,.09.03.19.05.02.11.03.1.06.03-.11.13.02.18-.13.02.03.07-.02.09.06.07-.06-.04-.05-.05-.09.08-.15.36,0,.47-.23.12-.14.09-.26.19-.38.07.02.03.13.03.13.1,0,.15-.04.2-.11,0,.03.03.05.07.06.05-.04-.03-.13.07-.13,0,.04.03.1.02.15.05-.07.07-.17.12-.23.05.04.01.1.01.15.06-.07.16-.17.12-.27h-.06s.06.06.05.09c-.02.1-.11.04-.13,0l.03-.05c-.16-.13-.16.15-.27.21l-.04-.15-.03.17s-.1-.08-.06-.13c-.1-.02-.03.08-.13.04-.01,0-.01-.01-.01-.02l-.04.08s-.06-.08-.01-.09c-.16,0-.14.2-.23.13h0c-.15.11.03.09-.04.26l-.2-.2.03.1s-.06.01-.07-.03c-.03.1.03.04.02.12-.12-.04-.22.14-.31,0,0,.09.11.02.03.11-.09-.16-.1.07-.21.03,0-.1.08-.08-.02-.13,0,.17-.17.02-.22.07.04.12-.13.1-.24.17,0-.05-.24,0-.36-.03v-.02c0,.13-.11.13-.19.17-.01-.08,0-.11.04-.15l-.08.02s-.03.07-.08.09v-.1c-.1.02-.19.15-.33.1,0,.09.14.24,0,.31-.01-.05-.03-.13,0-.15-.01,0-.04.05-.07.03l.05-.09c-.07-.03-.02.07-.07.07,0-.07-.04-.04-.04-.1.01,0,.05.02.06,0-.06,0-.13-.04-.15-.09,0,.04,0,.09-.03.1-.1.01-.04-.08-.1-.11-.02.05-.09,0-.09.11-.03,0-.04-.05-.05-.07-.06.05-.37.01-.24.13h.02s0,.01,0,.01h0,0c-.11.06-.25.02-.43-.02-.05.04-.05.15-.04.25l-.03-.02c.03.16.01.33.08.43,0,.04-.07.08-.11.06.02.08.06.09,0,.21-.06-.09-.05.03-.04-.09-.03.11-.09.13,0,.25-.09-.04-.11.08-.09.13l.07-.08c.01.06,0,.11,0,.16l-.12-.03c-.14.23.26.4.02.58.08.06.05-.12.15-.07-.01.1-.17.22-.17.25-.06.15.18.12.14.27.04-.02.15-.05.19.06-.01.1-.16.14-.2.08,0-.02,0-.04.02-.04-.02-.03-.04-.07-.08-.03h.04c-.04.06-.02.21-.09.18.05.07.07.03.09-.03-.04.14.02.21,0,.35.02-.02.07-.05.07-.03-.03.2.09.08.12.21-.05.08-.15,0-.08.12-.03.09-.11.03-.14,0,.09.11-.02.24-.03.31l-.04-.06s.03.07.03.1l.08-.05s0,.07-.04.08c.06.03.13-.05.22.01-.03.06.07.15-.03.18,0-.17-.11.04-.15-.1.02.02.02.06.02.1-.01,0-.02,0-.03-.01-.07.17.14.05.17.21-.06,0-.11.06-.09.08-.01-.06.1-.05.15,0-.03.11.06.1.06.16v-.07c.08,0,.08.06.11.12-.05.02-.05-.06-.06-.03.12.05-.08.2.03.29-.03.06-.11.03-.13.08.11.1-.05.15.06.26.07-.06.05-.06.15,0l-.12-.19.15.1c-.02-.06-.09-.12-.08-.16.08.05.06.04.12,0-.1.12.12.15.06.27l-.2.06c-.04.18.17.24.19.44v-.07c.1,0,.07.11.12.16-.07.02-.08.06-.11.11.05-.02.05.14.18.11l-.05.12c.02.17.25.1.29.25-.09-.01-.1.07-.2,0,.02.05.03.1.07.08-.03.05.15.09.11.16.04,0,.11-.02.12.04,0,.01-.03.01-.03.01.03-.01.08.06.13-.02-.13.24.22.38.12.6.08.1.16.2.22.28-.02,0-.03.02-.03,0,.03.15.21-.04.24.14-.05.13-.1-.04-.1.03-.17.15.13.15.09.31h-.03c0,.1.2.1.27.22,0,0-.02,0-.03.02.15,0,.29.11.4.18-.09.03-.07-.01-.13.07.05.04.1-.11.19-.04-.01.06.01.15-.05.23l-.08-.08c-.05.13.1.1.13.16l-.04.03c.14.11.23.01.36.14v-.04c.18-.04.03.11.17.1l-.06.13c.06,0,.29.06.41.1-.08.07-.3-.02-.4-.02.03.03.26.19.32.13-.03,0-.09,0-.11-.04.07-.01.14-.02.2-.01.03,0,.06.01.09.02.03-.02.07-.03.1-.04-.02.15.09.13.23.09.12-.03.21-.06.3.02.19-.17.46-.11.7-.27-.18-.14.07-.04-.04-.23.05-.04.07-.05.08-.04l.23.02c.07.03-.03.07,0,.11.13-.05.1.05.21.06-.06-.06-.01-.12.07-.13l-.15-.03c.11-.19.24.06.34-.15v.09c.05-.09.3-.22.28-.42.03,0,.08.04.06.08.23-.11.29-.49.5-.53l.02.05s-.01-.12.07-.12c.01.02.02.05.04.04,0-.03.02-.15.09-.17v.08c.23-.12.14-.37.24-.53.12.1.28,0,.36-.06v.02c.21-.2.19-.45.29-.69.24-.03.34-.41.55-.57-.04.02-.1-.07-.09-.11.06-.04-.01-.19.11-.11v.02c.13.03.15-.1.2-.18l-.16-.1c.35-.1.2-.61.46-.64-.02-.07,0-.14-.01-.21l.09.04c.09-.14.14-.21.18-.41l.05.06c.05-.11-.22-.24-.19-.33l.15.02c.07-.19.25-.34.18-.57.02,0,.06.03.06.06.03-.09.2-.32,0-.34.13.03.07-.19.04-.31l.09.04c-.1-.12-.13-.13-.13-.26.02-.03.08,0,.05.03.07-.08-.07-.1,0-.2l.05.06c.03-.1,0-.1-.06-.17-.03-.06.07-.19.16-.22-.05-.03-.11-.1-.07-.17.04-.02.05.01.06.03.12-.27-.06-.29.07-.5.04-.03.06-.05.07-.07-.03.2-.06.36-.07.34.1-.03.14-.22.25-.12-.02-.07-.07-.14-.1-.21-.04-.06,0-.18-.11-.17,0,0,0-.02.01-.03h.03s-.07-.01-.12,0c-.04-.02-.07-.03-.12-.04.04-.07-.18-.06-.27-.07-.04.09-.14.07-.08.16,0,0,.02-.01.08,0,.01,0,.03,0,.04,0h-.01c.05.01.12.01.2.02-.11.04-.19.07-.24.02-.07.06-.14.12-.18.14-.01-.13-.24-.24-.22-.32-.16.03-.35-.02-.49.12-.05.01-.04-.07-.04-.1.03-.01.06,0,.08-.02-.1.02-.25-.05-.31.06-.09-.09.1-.09-.05-.12l.03-.03c-.19-.29-.59.12-.76-.28.01.03.02.04.01.06-.26-.29-.73-.35-.89-.75-.05-.1-.12-.05-.21-.05l.06-.09h-.17c-.18-.05,0-.37-.25-.41l-.04.07c-.04-.06-.18-.15-.11-.2-.01,0-.07.03-.06-.02l.04-.04-.18-.09c-.05-.14.19-.11.09-.28-.06-.05-.24-.09-.26-.05,0,.02,0,.08-.04.11l-.06-.05c-.15.07-.33.1-.32.32l.16.06-.04.08-.06-.09c-.03.09.05.09.11.1-.03.03-.04.06-.04.09h.2c-.04.06-.14.04-.11.13.09,0,.08-.13.18-.08-.02.09-.08.12.01.13-.03.03-.06.04-.09.03.08.02.12.12.21.09-.03.11.16.15.04.25.04,0,.17,0,.21.04-.21.05.14.17-.02.29.18-.06.26.16.43.18-.01,0-.04.01-.05,0,.05.06.04.12.06.17.1-.1.21-.04.32-.07,0,.16-.15.09-.2.21.07-.09.21.02.24-.08.01.11.03.07,0,.19.11-.13.07.02.19-.03.04.13-.07.15.06.17.02.08-.11.07-.11.07ZM10,4.83h0s-.03,0-.04,0c0,0,.02,0,.04,0ZM10,4.93s.01-.04.01-.05c.04-.03.08-.05.07-.03-.02,0-.05.05-.09.09ZM10.34,4.18c.07,0,.08.01.07.03-.03,0-.06,0-.11,0h-.01s.04-.02.06-.03Z"/>
        <path class="cls-1" d="M10.16,4.29s-.02,0-.03,0l.02.02.04-.03h-.03Z"/>
        <polygon class="cls-1" points="1.96 3.38 1.96 3.38 1.97 3.39 1.96 3.38"/>
        <polygon class="cls-1" points="8.99 7.56 9.01 7.57 9 7.54 8.99 7.56"/>
        <path class="cls-1" d="M3.28,3.58s.01.02.02.02c0,0-.01-.01-.02-.02Z"/>
        <path class="cls-1" d="M3.81,3.48h.08s-.06,0-.08,0Z"/>
        <path class="cls-1" d="M4.23,3.39s0-.03,0-.04h0s0,.04,0,.04Z"/>
        <path class="cls-1" d="M2.29,7.39h0s.01.02,0,0Z"/>
        <path class="cls-1" d="M1.81,5.55s.04.04.05.06c0-.03,0-.06-.05-.06Z"/>
        <polygon class="cls-1" points="3.05 9.31 3.05 9.31 3.05 9.32 3.05 9.31"/>
        <path class="cls-1" d="M1.86,5.69s.01-.06,0-.09c0,.03-.01.06,0,.09Z"/>
        <path class="cls-1" d="M5.89,2.57h.02s0-.02,0-.02v.02Z"/>
        <path class="cls-1" d="M5.9,2.55v-.02s0,.01,0,.02Z"/>
        <path class="cls-1" d="M5.94,2.47l-.02.05s.03-.02.02-.05Z"/>
        <path class="cls-1" d="M5.39,2.84v.03s0-.02,0-.03Z"/>
        <path class="cls-1" d="M5.25,2.94s.13.01.17-.03v-.03c0,.06-.16-.01-.17.06Z"/>
        <path class="cls-1" d="M4.43,2.85s.09-.02.13-.03c-.04-.02-.08-.06-.03-.09-.2-.03.07.07-.1.12Z"/>
        <path class="cls-1" d="M4.03,2.95c.06-.04-.02-.05-.02-.07-.03.05-.04.06.02.07Z"/>
        <path class="cls-1" d="M1.42,4.12h-.09s.03,0,.09,0Z"/>
        <polygon class="cls-1" points="1.86 4.71 1.92 4.66 1.84 4.63 1.86 4.71"/>
        <polygon class="cls-1" points="1.24 5.08 1.22 5.05 1.26 5.15 1.24 5.08"/>
        <path class="cls-1" d="M2.55,10.24l.09-.07s-.15.03-.09.07Z"/>
        <path class="cls-1" d="M4.07,12.01c-.02.06.01.13.08.11-.04-.04-.05-.11-.08-.11Z"/>
        <polygon class="cls-1" points="9.54 8.47 9.55 8.53 9.56 8.44 9.54 8.47"/>
      </g>
      <g>
        <path class="cls-1" d="M4.52,12.18s.1.02.09,0l-.11-.03.03.03Z"/>
        <path class="cls-1" d="M4.75,12.11c-.05-.02-.15-.06-.26-.06.11.03.06.03.19.07.01.02-.04.02-.08.01.03,0-.03.02.04.04.09,0,.1-.03.03-.07.03,0,.06,0,.08.01Z"/>
        <path class="cls-1" d="M5.12,10.68h-.01s.01,0,.01,0Z"/>
        <path class="cls-1" d="M5.3,9.79s.01.01.02.01c0,0-.01-.01-.02-.01Z"/>
        <path class="cls-1" d="M5.45,9.66s0,0,0,0c.01,0,.02,0,0,0Z"/>
        <path class="cls-1" d="M5.12,10.68l.04-.02s-.03,0-.04.02Z"/>
        <path class="cls-1" d="M4.5,11.87s.02.01.03.02c0,0,0,0-.01-.01,0,0-.01,0-.02,0Z"/>
        <path class="cls-1" d="M5.16,11.09h0s.03.02.05.02l-.05-.02Z"/>
        <path class="cls-1" d="M5.14,11.4s-.09-.02-.13-.03c.04,0,.06.02.06.02.02,0,.04,0,.07,0Z"/>
        <path class="cls-1" d="M4.9,11.85h.01s0,0-.01,0Z"/>
        <path class="cls-1" d="M5.21,10.88s.03,0,.04,0c-.01,0-.02,0-.04,0Z"/>
        <path class="cls-1" d="M5.6,2.3s.01,0,.02,0c0,0-.02,0-.02,0Z"/>
        <path class="cls-1" d="M6.13,2.01h0s.04.01.05.01h-.06Z"/>
        <path class="cls-1" d="M5.61,9.39s0,0,0,0c.01,0,0,0,0,0Z"/>
        <path class="cls-1" d="M5.88,6.81c-.09.02-.11-.06-.21-.03.04,0,.15.06.21.03Z"/>
        <path class="cls-1" d="M4.51,11.86s0,0,0-.01c0,0,0,0,0,.01Z"/>
        <path class="cls-1" d="M5.67,6.78s0,0,0,0h0s0,0,.01,0Z"/>
        <path class="cls-1" d="M5.64,8.74s-.03,0-.04,0c.01,0,.02,0,.04,0Z"/>
        <path class="cls-1" d="M5.43,9.2h.01s-.01,0-.01,0Z"/>
        <path class="cls-1" d="M5.53,8.47s.02,0,.01-.02c0,0,0,0-.01,0,.01,0,.02.01,0,.02Z"/>
        <path class="cls-1" d="M5.56,8.21s-.01,0-.02,0c0,0,0,0,0,0h.02Z"/>
        <path class="cls-1" d="M5.54,3.09s.06,0,.09,0c-.07,0-.09-.05-.09,0Z"/>
        <path class="cls-1" d="M4.55,11.88s-.04,0-.04-.01c0,0,0,0,0,0,.01,0,.03,0,.04,0Z"/>
        <path class="cls-1" d="M4.76,8.36l.02-.04s-.02.02-.02.04Z"/>
        <path class="cls-1" d="M5.31,4.96h-.01s0,0,.01,0Z"/>
        <path class="cls-1" d="M4.78,8.2s.06,0,.07-.01c0,0-.01,0-.02,0l-.05.02Z"/>
        <path class="cls-1" d="M5.63,3.09s0,0,0,0c0,0,0,0,0,0Z"/>
        <path class="cls-1" d="M5.43,2.79s.12.04.2.05c.03.05-.1,0-.16.02.03.03.14.07.14.09-.02,0-.03,0-.06,0,.1.04,0,.09.12.15-.01,0-.02,0-.03,0,.07,0,.13.01.18.02,0,.02.08.04,0,.04,0-.01-.03-.02-.06-.02l.03.02c-.12,0-.04-.03-.13-.04.03.04.13.1.09.12-.12,0-.03-.07-.14-.05l.05-.04c-.19,0,.02-.02-.19-.02-.04.05.05.07,0,.12.06.02.1,0,.16.03.11.1-.3.02-.16.1.08.03.22.05.14.08l-.13-.03c-.02.05.19.06.09.1-.05-.02-.04-.05-.06-.04-.11.02.07.04.07.06h-.12c.01.05.09.13.1.19-.03,0-.07-.02-.11-.01.05.09-.04.17-.12.24l.1.04s-.05,0-.07,0c-.04.03.06.01.1.03,0,.02-.06.02-.09,0,.08.07.17.18.05.22l-.03-.02s.2.08.1.11h-.02c-.06.08.02.2-.14.25.14.03-.08.09.13.12-.11.04-.14.02-.22.09-.01.02.12.05.14.08h-.11s.11.04.11.04h-.13s.02.03.02.03c0,0,.05-.01.08,0,.04.04-.09.08-.14.07l.08.1s-.06-.02-.08-.04c.1.06-.11,0-.02.05.03,0,.06.01.08.02-.07.01-.07.06-.05.1l-.07-.02c-.03.06.02.14,0,.22.04-.02.16,0,.17.02h-.11c.07.02.05-.02.13.02-.02.03-.13,0-.17-.02l.03.04s-.05-.01-.09-.02c.07.02-.12.04,0,.08h-.03c-.01.07.02.11.02.17.1.01.07.03.15.06-.04.04-.12.08-.12.13.04.04.08.02.14.05-.09,0-.09.04-.15,0,0,.07,0,.08.07.17.04,0,.05-.01.08,0,.01.02-.04.03-.08.02h0c.12.1-.29.17-.11.26h0s.09.08.09.08c-.02.03-.06-.03-.12-.01.14.1-.04.12.05.2-.27.02,0,.18-.18.23h.06c.06.03-.04.02-.05.03.05,0,.06-.01.09,0,.05.16-.13.3-.21.45-.02.05.32.07.16.13l-.11-.04c.12.13-.04.23.07.36-.03-.01-.06-.01-.06-.03-.09.01-.02.09.05.1-.01.02-.06,0-.1,0-.05.02.1.07.01.08-.01,0-.03-.01-.03-.02.04.02-.02.07.08.07-.05.04.03.09-.03.11.1.04-.06.07.09.09-.16-.02-.14.06-.07.09-.05-.02-.05.02-.12,0,0,.03.02.06.11.07-.2.03.14.13-.11.13.07.1.12.19.14.28-.16-.02,0-.09-.17-.11.05.09.18.15.14.22-.02.02-.07-.02-.09-.03.05.09-.03.15.04.23-.01,0-.03-.01-.04-.02,0,.01-.03.03.04.04l-.02-.02c.11,0,.21.08.26.09-.2-.05-.06.06-.31,0,.01.01.04.03.09.03-.02.01-.04.01-.1,0,.03.05.11.05.1.09-.03,0-.05-.02-.09-.03.06.03.13.06.09.1-.02,0-.05,0-.05-.02,0,.06.16.13.09.19-.15-.04-.05.02-.18,0l.03.04h.06s.08.07.04.09l-.05-.03.02.06.05-.03c.06.04.16.02.12.06-.01-.01,0,.03-.08.04,0,0,0,0,0,0,.04.02.08.04.05.06-.04,0-.14-.02-.17-.02.11.03.02.08.13.12-.03-.01-.09-.02-.11-.02l.09.03s-.04.01-.1,0c-.02.04.17,0,.09.05,0,0-.02,0-.03-.02-.04.05.04.11,0,.16-.13,0-.03-.05-.14-.05.01.08.14.17.1.24h.02c.18.02-.1.03-.02.08-.01-.01-.1-.02-.08-.02-.04.04.03.1.08.18l-.05-.02s-.03.07-.06.1c.05.02.04.03.11.03-.28.06.12.2-.11.25,0-.01-.04-.03-.04-.02l.03.08c.08,0,.05,0,.11,0,.05.02.08.04.08.06-.05-.04-.13-.02-.18,0,.02,0,.05,0,.08.01-.15.02.16.03.06.07h-.04s.07.04.06.06c-.09,0-.04-.03-.12-.04,0,.03.17.08.07.09-.02-.02-.02-.03-.05-.05-.11.01-.09.02-.11.04h0s-.06.04-.06.04h.03c.24.06.03.07.19.14-.14-.07-.09-.02-.19-.04-.03,0-.07.02-.09.01.08.03-.07.03.05.08-.03,0,0,.02-.09,0,.02.03.06,0,.1,0,.11.06-.15.09,0,.18.06.07.17.09.22.15-.06.01-.12-.03-.12-.03-.05.02-.05.04-.01.08-.03,0-.05,0-.09,0,0,.02.12.03.07.05-.04,0-.1-.02-.13-.04.03.03.09.06.11.09-.06,0-.09-.03-.12-.04.02.03.04.08.14.11h.04s-.08-.02-.1-.03c-.07-.04.04-.03.07-.03l.02.02c.2,0-.02-.08,0-.12l.14.03-.11-.05s.12,0,.14.02c.07-.02-.05-.03.03-.04.01,0,.02,0,.02,0l-.04-.03s.1,0,.08.02c.09-.04-.1-.09.01-.09h0c-.04-.07-.11-.02-.22-.08h.27s-.11-.02-.11-.02c0,0,.01-.02.06-.01-.07-.03-.05,0-.11-.03.1-.02-.03-.1.14-.08-.08-.02-.07.02-.12-.02.18.01-.03-.04.06-.06.09.02.04.04.13.02-.16-.04.04-.05.02-.08-.13-.02-.05-.06-.08-.11.04,0,.08-.07.13-.1h.02c-.13-.02-.1-.06-.12-.09.08.01.11.02.14.04v-.03s-.06-.02-.07-.04l.09.02s-.1-.09-.03-.13c-.09-.01-.25,0-.31-.05.05,0,.13.01.15.03,0,0-.04-.02-.02-.03l.08.03s-.07-.02-.06-.04c.07,0,.05,0,.1,0,0,0-.03.01,0,.02.01-.02.06-.04.11-.04-.04,0-.09-.01-.1-.03,0-.04.08,0,.12-.02-.05-.02,0-.03-.1-.05,0-.01.05,0,.08,0-.04-.03,0-.09-.11-.08h0s0,0,0,0h0s0,0,0,0c-.09-.08.08-.12.04-.19h.03s-.01-.08-.08-.12c0-.01.07-.02.11,0-.02-.03-.06-.04,0-.07.06.04.05,0,.04.04.03-.03.09-.03,0-.09.09.03.11-.01.09-.03l-.07.02s0-.04,0-.05l.11.02c.15-.06-.22-.17.02-.19-.08-.03-.06.03-.15,0,.02-.03.19-.05.19-.06.07-.04-.16-.07-.11-.11-.04,0-.15,0-.19-.05.02-.03.18-.02.21,0,0,0-.01.01-.03,0,.01.01.03.03.08.02h-.04s.05-.07.11-.05c-.04-.03-.07-.02-.09,0,.07-.04.01-.07.06-.11-.02,0-.07,0-.07,0,.06-.06-.07-.04-.09-.09.07-.02.15.03.1-.02.05-.02.11,0,.14.02-.07-.05.06-.07.08-.09l.03.03s-.02-.03-.01-.04h-.08s.02-.02.05-.02c-.05-.02-.14,0-.21-.04.04-.01-.04-.06.07-.05-.04.05.11,0,.12.06-.01-.01,0-.02,0-.03.01,0,.02,0,.03,0,.1-.04-.12-.04-.11-.09.06.02.12,0,.11,0,0,.02-.1,0-.15-.03.05-.03-.03-.04-.02-.06l-.03.02c-.06-.02-.05-.03-.07-.06.05,0,.03.03.05.02-.1-.04.12-.05.05-.09.04-.01.12.01.15,0-.07-.05.09-.03.03-.09-.08,0-.06,0-.14-.03l.05.08-.11-.06s.05.05.03.06c-.06-.03-.04-.03-.11-.02.13-.01-.06-.07.02-.09l.2.03c.1-.04-.09-.11-.03-.17l-.04.02c-.08-.02,0-.04-.04-.07.07.01.09,0,.14,0-.05,0,.01-.05-.12-.07l.09-.02s-.19-.09-.16-.14c.07.03.12,0,.17.05,0-.02.02-.03-.03-.04.04,0-.09-.06-.02-.07-.03-.01-.1-.02-.09-.04.01,0,.03,0,.03,0-.03,0-.04-.04-.12-.03.22-.03,0-.15.19-.18-.02-.04-.03-.09-.03-.13.02,0,.03,0,.03.01.07-.04-.19-.06-.11-.1.11-.01.06.04.1.02.23.02-.02-.07.11-.09h.01c.08,0-.08-.07-.05-.11,0,0,.02,0,.03,0-.11-.05-.14-.11-.17-.16.09.03.04.03.13.03-.01-.02-.14-.01-.16-.06.05,0,.1-.03.19-.02v.04c.13,0,0-.05.03-.07h.05s-.15-.07-.13-.13h-.04c-.13-.05.08-.02-.02-.06h.14s-.12-.09-.14-.13c.1.04.14.09.2.13,0-.02,0-.08-.07-.1.01.01.04.03.02.03-.1-.04-.15-.08-.14-.13.26.04.08-.1.29-.11-.09-.09.06-.15.06-.24-.21,0,0-.03-.22-.05-.01-.02,0-.03,0-.03l.14-.05c.06,0,.04.03.09.03.02-.04.09,0,.15-.03-.08,0-.11-.03-.07-.05l-.1.02c-.1-.08.19-.03.08-.11l.06.03s.02-.12-.15-.18c.03,0,.08,0,.1.01.04-.08-.16-.2-.05-.25h.05s-.09-.03-.04-.04c.02,0,.05.01.05,0-.02-.01-.09-.05-.05-.07l.06.02c.08-.07-.13-.14-.15-.21.15.02.21-.03.24-.06h.02c.03-.08-.11-.17-.16-.26.17-.03.09-.17.2-.24-.03,0-.12-.02-.13-.03.03-.02-.1-.07.04-.05h0c.14.01.11-.03.12-.07l-.18-.03c.28-.05-.07-.23.17-.24-.04-.03-.04-.05-.08-.08h.1s.05-.06.03-.13l.07.02s-.28-.09-.28-.12h.15c0-.06.14-.11.02-.19.02,0,.06.01.07.02,0-.03.12-.11-.09-.12.13.02.02-.07-.03-.11l.1.02c-.12-.05-.15-.05-.18-.1.01,0,.08,0,.05.01.06-.03-.09-.04-.03-.07l.06.02s-.02-.03-.09-.06c-.04-.03.03-.06.12-.06-.05-.01-.12-.04-.09-.06.03,0,.05.01.06.02.07-.05-.1-.1,0-.13.03,0,.05,0,.06,0,0,.05-.02.08-.03.08.09.01.11-.02.23.02-.06-.04-.2-.11-.16-.14,0,0,.02,0,.03,0h0s0-.01-.01-.02c.02,0,.03-.02.03-.03.07,0,.05-.04.05-.05-.1-.01-.08-.03-.16-.02,0,0,.01,0,.01.02,0,0,0,0,0,0,0,0,0,0,0,0,0,.01,0,.03,0,.05-.05-.02-.09-.04-.03-.05-.06-.02-.12-.04-.15-.05.14,0,.22-.05.3-.04-.05-.06-.02-.14-.2-.2-.02-.02.05-.01.08-.01.02.01.01.02.04.03-.04-.04,0-.1-.13-.12.06-.03.11.04.1-.02h.04c.22-.07-.3-.21-.02-.29-.02,0-.03,0-.05,0,.13-.12-.07-.3.13-.41.04-.03-.04-.05-.1-.08h.11s-.12-.05-.12-.05c-.08-.07.27-.06.11-.16h-.07s-.03-.09.05-.07c-.01,0-.07-.02-.03-.02h.05s-.09-.07-.09-.07c.05-.04.22.04.24-.03-.02-.03-.15-.1-.19-.09,0,.01-.04.02-.09.02l-.03-.03c-.16-.03-.32-.07-.44-.02l.09.05h-.08s0-.03,0-.03c-.08.01-.01.03.03.05-.04,0-.07,0-.09,0l.15.06c-.06,0-.12-.04-.16-.01.07.03.14,0,.19.04-.08.01-.14,0-.08.03-.04,0-.07-.01-.08-.02.05.03.01.06.1.08-.09,0,.01.07-.14.05.04.01.12.05.12.07-.18-.06-.02.07-.22.04.16.05.06.1.15.16-.01,0-.04-.01-.03-.02-.02.02-.07.03-.1.04.14.02.16.07.24.1-.14.01-.16-.04-.28-.05.11.01.1.07.2.07-.08.01-.04.02-.16.01.17.03.03.03.13.06-.09.02-.16-.01-.11.03-.05.01-.11-.03-.11-.03ZM5.61,3.75s0,0,0,0c0,0,0-.02,0-.02,0,0,0,0,0,.02ZM5.6,3.83s0-.02,0-.03c.03,0,.07,0,.07.02-.02,0-.04,0-.07.02ZM6.29,3.75s0,.02-.03.01c0,0,0-.01,0-.02,0,0,0,0-.01,0,.02,0,.04,0,.05.01Z"/>
        <path class="cls-1" d="M6.17,3.71s0,0,0,0c0,0-.02,0-.02,0,.01,0,.02,0,.03,0,0,0,0,0,0,0Z"/>
        <path class="cls-1" d="M5.1,10.69h0s0,0-.01,0c0,0,0,0,.01,0Z"/>
        <polygon class="cls-1" points="5.27 4.87 5.29 4.87 5.27 4.86 5.27 4.87"/>
        <path class="cls-1" d="M4.71,11.07s-.02,0-.03,0c0,0,.02,0,.03,0Z"/>
        <path class="cls-1" d="M4.67,11.25l-.04.02s.03-.02.04-.02Z"/>
        <path class="cls-1" d="M4.6,11.39s.03,0,.04,0c0,0,0,0,0,0h-.04Z"/>
        <path class="cls-1" d="M4.78,9.13s0,0,0,0c-.02-.02-.01,0,0,0Z"/>
        <path class="cls-1" d="M4.92,9.83s-.03-.02-.04-.03c0,.01-.01.02.04.03Z"/>
        <polygon class="cls-1" points="4.76 8.37 4.76 8.37 4.76 8.36 4.76 8.37"/>
        <path class="cls-1" d="M4.88,9.77s-.02.02,0,.03c0,0,.02-.02,0-.03Z"/>
        <path class="cls-1" d="M4.47,11.99h0s.01,0,.02,0h-.01Z"/>
        <path class="cls-1" d="M4.48,12h.01s0,0-.01,0Z"/>
        <path class="cls-1" d="M4.52,12.03l-.02-.02s0,.01.02.02Z"/>
        <path class="cls-1" d="M4.54,11.81h-.04s.02,0,.04,0Z"/>
        <path class="cls-1" d="M4.54,11.76s-.08.02-.06.05h.03c-.05-.01.09-.03.03-.05Z"/>
        <path class="cls-1" d="M5.01,11.58l-.03.04s.09,0,.1.02c.12-.05-.09,0-.06-.06Z"/>
        <path class="cls-1" d="M5.08,11.44s.05,0,.08.01c-.03-.02-.04-.03-.08-.01Z"/>
        <path class="cls-1" d="M5.22,10.37h.09s-.03,0-.09,0Z"/>
        <polygon class="cls-1" points="4.79 10.1 4.73 10.12 4.81 10.14 4.79 10.1"/>
        <polygon class="cls-1" points="5.44 10.07 5.45 10.08 5.42 10.04 5.44 10.07"/>
        <path class="cls-1" d="M5.65,8.27h-.11s.14.03.11,0Z"/>
        <path class="cls-1" d="M5.64,7.48c.06,0,.09-.02.04-.04,0,.02-.05.03-.04.04Z"/>
        <polygon class="cls-1" points="6.12 5.19 6.15 5.21 6.13 5.18 6.12 5.19"/>
      </g>
      <g>
        <path class="cls-1" d="M9.1,8.43s0-.1,0-.09l-.02.11.02-.03Z"/>
        <path class="cls-1" d="M9.04,8.21c-.02.06-.04.15-.04.26.02-.11.01-.06.04-.19.01-.01.02.04.01.08,0-.03.02.03.03-.05,0-.09-.03-.1-.05-.02,0-.03,0-.06,0-.08Z"/>
        <path class="cls-1" d="M8.01,7.94h0s0,0,0,0Z"/>
        <path class="cls-1" d="M7.37,7.81s0-.01,0-.02c0,0,0,.01,0,.02Z"/>
        <path class="cls-1" d="M7.27,7.67h0s0,0,0,0Z"/>
        <path class="cls-1" d="M8.01,7.94v-.04s0,.03,0,.04Z"/>
        <path class="cls-1" d="M8.88,8.48s0-.02.01-.03c0,0,0,.01,0,.01v.02Z"/>
        <path class="cls-1" d="M8.3,7.88h0s0-.03,0-.05v.05Z"/>
        <path class="cls-1" d="M8.52,7.88s-.01.09-.02.14c0-.04.01-.06.02-.07,0-.02,0-.04,0-.07Z"/>
        <path class="cls-1" d="M8.86,8.08h0s0,0,0,0Z"/>
        <path class="cls-1" d="M8.15,7.84s0-.03,0-.04v.04Z"/>
        <path class="cls-1" d="M1.93,7.55v-.02s0,.02,0,.02Z"/>
        <polygon class="cls-1" points="1.8 7.02 1.81 7.01 1.82 6.96 1.8 7.02"/>
        <path class="cls-1" d="M7.09,7.53h0s0,0,0,0Z"/>
        <path class="cls-1" d="M5.25,7.34c0,.09-.05.11-.04.21,0-.04.05-.15.04-.21Z"/>
        <path class="cls-1" d="M8.87,8.46h0s0,0,0,0Z"/>
        <polygon class="cls-1" points="5.21 7.55 5.21 7.55 5.21 7.56 5.21 7.55"/>
        <path class="cls-1" d="M6.62,7.53s0,.03,0,.04c0-.01,0-.02,0-.04Z"/>
        <path class="cls-1" d="M6.95,7.71h0s0,0,0,0Z"/>
        <path class="cls-1" d="M6.42,7.64s0-.02-.01,0c0,0,0,.01,0,.01,0-.01,0-.02.01,0Z"/>
        <polygon class="cls-1" points="6.24 7.62 6.24 7.64 6.24 7.63 6.24 7.62"/>
        <path class="cls-1" d="M2.51,7.64s0-.06.01-.09c-.01.07-.05.09-.01.09Z"/>
        <path class="cls-1" d="M8.88,8.42s0,.04,0,.04h0s0-.03,0-.04Z"/>
        <path class="cls-1" d="M6.31,8.41l-.03-.02s.02.02.03.02Z"/>
        <path class="cls-1" d="M3.85,7.91h0s0,.01,0,0Z"/>
        <path class="cls-1" d="M6.19,8.39s0-.06,0-.07c0,0,0,.01,0,.02v.05Z"/>
        <path class="cls-1" d="M2.52,7.55h0s0,0,0,0Z"/>
        <path class="cls-1" d="M2.27,7.73s.04-.12.07-.19c.04-.03,0,.1,0,.16.03-.03.07-.14.09-.13,0,.02,0,.03-.01.05.05-.09.07.01.12-.11v.03c0-.06.02-.13.03-.17.01,0,.04-.07.03,0,0,0-.02.03-.02.05l.02-.03c-.02.12-.03.04-.05.12.03-.03.09-.12.1-.09-.02.12-.05.03-.05.14l-.02-.05c-.02.19-.02-.02-.04.18.03.04.06-.05.09,0,.02-.06.02-.1.04-.16.08-.1-.02.3.06.16.03-.07.07-.22.08-.14l-.04.13s.06-.18.09-.09c-.02.05-.04.04-.04.05,0,.11.04-.07.06-.07l-.02.12s.11-.08.16-.09c-.01.03-.03.07-.02.11.07-.05.12.04.16.12l.04-.1s0,.05,0,.07c.01.04.01-.06.03-.1.01,0,0,.06,0,.09.06-.08.15-.16.17-.04v.03s.06-.2.07-.1v.02c.05.06.14-.02.17.14.04-.14.06.08.1-.12.02.11,0,.14.04.22.01.01.05-.12.07-.14l-.02.11.05-.11v.13s.01-.02.01-.02c0,0,0-.05,0-.08.04-.04.05.09.04.14l.08-.08s-.02.05-.04.08c.05-.1-.02.11.03.02,0-.02.01-.06.02-.08,0,.07.04.07.07.05l-.02.07s.11-.02.16,0c-.01-.04.02-.16.03-.17v.11c0-.07-.02-.05.01-.13.02.02-.01.13-.03.16l.03-.03s-.01.05-.02.09c.02-.07.02.12.06,0v.03s.08-.02.12-.02c.02-.1.03-.07.06-.15.03.04.05.12.09.12.04-.04.02-.08.04-.14-.01.09.03.09,0,.15.05,0,.06,0,.13-.07,0-.04,0-.05,0-.08.01-.01.02.04,0,.08h0c.09-.11.11.29.19.12h0s.07-.08.07-.08c.02.02-.03.06-.02.12.08-.14.09.04.15-.05,0,.27.13,0,.16.18v-.06c.03-.06.02.04.02.05,0-.05,0-.06,0-.09.12-.06.21.13.32.2.04.02.07-.32.1-.16l-.03.11c.1-.12.17.03.27-.08,0,.03-.01.06-.02.06,0,.09.06.01.07-.05.01,0,0,.06,0,.1.01.05.06-.1.06-.02,0,.01,0,.03-.01.03.02-.04.05.02.05-.08.02.05.06-.03.08.03.03-.1.05.06.07-.09-.02.16.04.13.07.06-.01.05.01.05,0,.12.02,0,.05-.03.05-.11.02.19.1-.14.09.1.08-.08.14-.13.21-.15-.02.16-.07,0-.09.17.06-.06.11-.19.16-.14.01.02-.02.07-.02.09.06-.06.11.03.17-.05,0,.01,0,.03-.02.04.01,0,.02.03.03-.05v.02c-.01-.11.05-.21.06-.27-.04.2.04.06-.01.31,0-.01.02-.05.02-.09,0,.01,0,.04,0,.1.04-.03.04-.11.07-.11,0,.03-.01.05-.02.09.02-.07.05-.13.07-.1,0,.02,0,.05-.01.05.05,0,.1-.17.14-.1-.03.15.01.05,0,.18l.03-.04v-.06s.05-.09.07-.04l-.02.05.05-.02-.02-.05c.03-.06.02-.16.04-.12,0,.01.02,0,.03.08h0s.03-.08.05-.05c0,.04-.02.14-.02.17.02-.11.06-.02.09-.14,0,.03-.02.09-.02.11l.02-.09s0,.04,0,.1c.03.02,0-.17.04-.09,0,0,0,.02-.01.03.04.04.08-.05.11,0,0,.13-.04.03-.03.14.06-.02.12-.15.17-.11v-.02c.02-.18.02.09.05.01,0,.01-.02.1-.01.08.03.03.08-.04.13-.09v.05s.04.03.06.05c.01-.05.02-.04.02-.11.04.28.14-.13.18.1,0,0-.02.04-.02.04l.06-.04c0-.08,0-.05,0-.11.01-.05.03-.08.04-.08-.03.05-.01.13,0,.18v-.08c.02.15.03-.16.05-.06v.04s.03-.08.04-.06c0,.09-.02.04-.03.12.02,0,.06-.17.07-.08-.01.03-.02.02-.03.05.01.11.02.08.03.1h0s.03.05.03.05v-.03c.04-.24.05-.04.1-.2-.05.15-.01.09-.02.19,0,.03.02.06.01.09.02-.08.02.07.06-.05,0,.03.02,0,0,.09.02-.03,0-.06,0-.1.04-.11.07.15.13,0,.05-.06.06-.18.1-.23,0,.06-.02.12-.02.12.02.05.03.04.06,0,0,.03,0,.05,0,.09.02,0,.02-.12.04-.07,0,.04-.02.1-.03.14.02-.03.05-.09.07-.12,0,.06-.02.09-.03.13.02-.03.06-.05.07-.14v-.03s-.01.08-.02.1c-.02.07-.02-.03-.02-.07l.02-.02c0-.2-.06.03-.08.01l.02-.14-.04.12s0-.12.01-.14c-.01-.07-.02.05-.03-.03,0-.01,0-.02,0-.03l-.02.04s0-.1.01-.08c-.03-.09-.06.1-.07,0h0c-.05.04-.01.1-.06.22v-.26s-.02.11-.02.11c0,0-.01-.01,0-.06-.02.07,0,.05-.02.11-.02-.1-.07.04-.06-.13-.01.08.02.06-.01.12,0-.18-.03.03-.05-.06.01-.09.03-.04.02-.13-.03.16-.04-.04-.06,0-.01.13-.04.05-.08.09,0-.04-.05-.07-.08-.12v-.02c-.01.13-.04.1-.06.12,0-.08.01-.11.03-.14h-.02s-.02.06-.03.07v-.1s-.05.11-.08.04c-.01.09,0,.25-.04.31,0-.05,0-.13.02-.15,0,0-.01.04-.02.02l.02-.08s-.01.07-.03.06c0-.07,0-.05,0-.1,0,0,0,.03.02,0-.01-.01-.03-.06-.03-.11,0,.04,0,.09-.02.1-.03,0,0-.08-.01-.12-.01.05-.02,0-.03.1,0,0,0-.05,0-.08-.02.04-.07,0-.06.12h0s0,.01,0,.01h0,0c-.06.1-.09-.07-.14-.03v-.03s-.06.02-.09.09c0,0-.01-.06,0-.11-.02.02-.03.06-.05,0,.03-.06,0-.05.03-.04-.02-.03-.02-.09-.06,0,.02-.09,0-.11-.02-.09v.06s-.02,0-.03,0l.02-.12c-.04-.15-.12.23-.14-.01-.02.08.02.06,0,.15-.02-.02-.03-.19-.04-.19-.03-.07-.05.17-.08.12,0,.04,0,.15-.04.19-.02-.02-.01-.18,0-.21,0,0,0,.01,0,.02,0-.01.02-.03.02-.08v.04s-.05-.04-.03-.11c-.02.04-.02.07,0,.09-.03-.06-.05,0-.08-.05,0,.02,0,.07,0,.07-.04-.06-.03.08-.07.09-.01-.07.02-.15-.02-.1-.02-.04,0-.11.02-.14-.04.08-.05-.06-.07-.08l.02-.03s-.02.02-.03.02v.08s-.02-.02-.01-.05c-.02.05,0,.14-.04.21,0-.04-.04.04-.03-.07.03.04,0-.11.04-.12,0,.01-.02.01-.02,0,0-.01,0-.02,0-.03-.03-.1-.03.12-.07.11.01-.06,0-.12,0-.11.02,0,0,.1-.03.15-.02-.05-.03.03-.04.03v.02c0,.06-.01.05-.03.07,0-.05.02-.03.02-.05-.03.11-.03-.12-.07-.05,0-.04.01-.12,0-.15-.04.08-.02-.09-.06-.03,0,.08,0,.06-.03.14l.06-.05-.05.12s.04-.05.05-.03c-.02.07-.02.05-.02.11,0-.13-.05.07-.07-.02l.03-.2c-.03-.1-.08.1-.12.04v.04c0,.08-.02,0-.04.04.01-.07,0-.09,0-.14,0,.05-.03,0-.06.13v-.09s-.08.19-.11.16c.02-.07.01-.12.04-.17-.01,0-.02-.02-.03.03,0-.04-.05.09-.05.02,0,.03-.02.1-.03.09,0-.01,0-.03,0-.03,0,.03-.03.04-.03.12,0-.22-.11,0-.12-.19-.03.02-.07.04-.09.04,0-.02,0-.03,0-.03-.03-.07-.05.19-.08.12,0-.11.03-.06.02-.1.03-.23-.05.02-.06-.11h0c0-.09-.06.07-.09.04,0,0,0-.02,0-.03-.04.11-.09.14-.12.17.02-.09.02-.04.03-.13-.02.01-.02.14-.05.17,0-.05-.02-.09,0-.19h.03c0-.13-.03,0-.05-.03v-.05s-.05.15-.1.13v.04c-.05.13-.01-.08-.05.02v-.14s-.06.12-.09.14c.03-.1.07-.15.1-.2-.02,0-.05,0-.07.07,0-.01.02-.04.02-.02-.04.1-.07.15-.1.15.05-.26-.07-.08-.06-.29-.07.09-.1-.06-.17-.05-.01.21-.02,0-.05.21-.02.01-.02,0-.02,0l-.02-.13c0-.06.02-.04.03-.09-.03-.02,0-.09-.01-.15,0,.08-.03.11-.04.07v.1c-.05.11,0-.18-.06-.08l.03-.06s-.09-.02-.14.15c0-.03,0-.08.02-.1-.05-.04-.16.16-.18.05v-.05s-.02.09-.03.04c0-.02.01-.05,0-.05,0,.02-.04.09-.05.05l.02-.06c-.04-.08-.11.13-.16.15.03-.15,0-.21-.02-.24v-.02c-.06-.03-.13.11-.2.15,0-.17-.11-.09-.15-.2,0,.03-.02.12-.04.13,0-.03-.06.1-.03-.04h0c.02-.13-.02-.1-.04-.11l-.04.18c0-.27-.17.07-.16-.17-.02.04-.04.04-.06.08l.02-.1s-.05-.05-.1-.03l.02-.07s-.09.27-.12.27l.02-.15s-.07-.14-.14-.02c0-.02.02-.06.02-.07-.02,0-.07-.12-.1.09.03-.13-.05-.02-.08.03l.02-.09c-.05.12-.05.15-.09.18,0-.01,0-.08.01-.05-.01-.05-.04.09-.06.03l.02-.06s-.03.02-.06.09c-.02.04-.04-.03-.03-.12-.01.05-.04.12-.05.09,0-.03.01-.05.02-.06-.03-.07-.08.1-.09,0,0-.03,0-.05,0-.06.03,0,.06.02.05.03.02-.09,0-.11.04-.23-.03.06-.1.2-.12.15,0,0,0-.02,0-.03h0s-.01-.01-.02,0c0-.02,0-.03-.02-.03.01-.07-.02-.05-.03-.05-.02.1-.03.08-.04.16,0,0,0-.01.01-.01,0,0,0,0,0,0h0s.03,0,.03,0c-.02.05-.04.09-.04.03-.02.06-.04.12-.05.15.01-.14,0-.22,0-.3-.05.05-.1.01-.17.19-.02.02,0-.05,0-.08.01-.02.02-.01.03-.04-.03.04-.07,0-.1.13-.02-.06.04-.11,0-.1v-.04c-.02-.22-.18.29-.21.01,0,.02,0,.03,0,.05-.07-.14-.22.06-.28-.14-.02-.04-.04.04-.07.09l.02-.1-.06.11c-.06.08,0-.27-.1-.12v.07s-.08.03-.06-.05c0,.01-.02.07-.02.03v-.05s-.05.08-.05.08c-.02-.05.06-.21.01-.23-.02.02-.09.14-.1.18,0,0,0,.04,0,.09l-.02.02c-.05.16-.1.31-.09.44l.06-.09v.08s-.04,0-.04,0c0,.08.02.01.04-.03,0,.04-.01.07,0,.09l.07-.14c-.01.06-.05.12-.03.16.03-.07.02-.14.06-.18,0,.08-.02.13,0,.08,0,.04-.02.07-.03.08.03-.05.05-.01.07-.09,0,.09.06-.01.02.14.01-.03.06-.11.07-.11-.07.17.05.02,0,.21.06-.16.09-.06.14-.14,0,.01-.01.04-.02.03.02.02,0,.07.01.1.03-.13.07-.16.11-.23,0,.13-.05.15-.07.28.02-.11.07-.1.08-.19,0,.08,0,.04-.01.16.04-.17.02-.02.06-.12,0,.09-.03.16,0,.11,0,.05-.04.11-.04.11ZM3,7.59h0s-.01,0-.01,0c0,0,0,0,.02,0ZM3.05,7.6s-.01,0-.02,0c0-.03.01-.07.02-.06,0,.02,0,.04,0,.07ZM3.08,6.91s.01,0,0,.03c0,0,0,0-.02,0h0s.01-.02.01-.04Z"/>
        <polygon class="cls-1" points="3.04 7.04 3.03 7.04 3.03 7.06 3.04 7.04 3.04 7.04"/>
        <path class="cls-1" d="M8.02,7.96h0s0,0,0,.01h0Z"/>
        <polygon class="cls-1" points="3.78 7.95 3.78 7.92 3.78 7.94 3.78 7.95"/>
        <path class="cls-1" d="M8.29,8.33v.03s0-.02,0-.03Z"/>
        <path class="cls-1" d="M8.42,8.36l.02.04s-.01-.03-.02-.04Z"/>
        <path class="cls-1" d="M8.52,8.42s0-.03,0-.04h0s0,.04,0,.04Z"/>
        <path class="cls-1" d="M6.87,8.36h0s0,.02,0,0Z"/>
        <path class="cls-1" d="M7.39,8.19s-.02.03-.02.04c0,0,.01.01.02-.04Z"/>
        <polygon class="cls-1" points="6.32 8.41 6.32 8.41 6.31 8.41 6.32 8.41"/>
        <path class="cls-1" d="M7.34,8.23s.01.02.02,0c0,0-.01-.02-.02,0Z"/>
        <path class="cls-1" d="M8.97,8.49h0s0-.01,0-.01h0Z"/>
        <path class="cls-1" d="M8.97,8.48h0s0-.01,0,0Z"/>
        <path class="cls-1" d="M8.99,8.45v.02s0,0,0-.02Z"/>
        <path class="cls-1" d="M8.83,8.44v.04s0-.02,0-.04Z"/>
        <path class="cls-1" d="M8.79,8.45s.02.08.03.06v-.03c0,.05-.02-.09-.03-.03Z"/>
        <path class="cls-1" d="M8.65,7.99l.03.03s0-.09,0-.1c-.03-.12,0,.09-.04.07Z"/>
        <path class="cls-1" d="M8.55,7.93s0-.06,0-.08c-.01.03-.02.04,0,.08Z"/>
        <path class="cls-1" d="M7.78,7.86v-.09s0,.03,0,.09Z"/>
        <polygon class="cls-1" points="7.59 8.3 7.6 8.36 7.61 8.28 7.59 8.3"/>
        <polygon class="cls-1" points="7.57 7.66 7.58 7.65 7.55 7.68 7.57 7.66"/>
        <path class="cls-1" d="M6.28,7.54v.11s.02-.14,0-.11Z"/>
        <path class="cls-1" d="M5.71,7.57c0-.06,0-.09-.03-.04.01,0,.02.05.03.04Z"/>
        <polygon class="cls-1" points="4.09 7.11 4.11 7.07 4.09 7.1 4.09 7.11"/>
      </g>
    </g>
  </g>
</svg>