<?xml version="1.0" encoding="UTF-8"?>
<svg id="Layer_2" data-name="Layer 2" xmlns="http://www.w3.org/2000/svg" viewBox="0 0 12.07 11.82">
  <defs>
    <style>
      .cls-1 {
        fill: #202020;
      }
    </style>
  </defs>
  <g id="Layer_1-2" data-name="Layer 1">
    <g>
      <g>
        <path class="cls-1" d="M2.21,8.09l-.15.12h0s0,0,0,0h0s0,0,0,0c0,0,0,0,.01,0,0,0,.02-.01.02-.02h0s0,0,0,0h0s0,0,0,0l.1-.08h-.02s-.05.05-.07.08c0,0,.02,0,0,0l-.09.08h.04s-.01,0,0-.02c.04-.05.08-.1.14-.14Z"/>
        <path class="cls-1" d="M1.89,7.89c-.09.02-.21.05-.23.17.12-.06.11,0,.24-.09.06.02.07.08.04.12.03-.02.07.07.13.01-.02-.11-.1-.16-.23-.15,0-.03.03-.05.04-.06Z"/>
        <path class="cls-1" d="M.76,2.99l-.03.03s.02-.01.03-.03Z"/>
        <path class="cls-1" d="M3.27.96s-.03.02-.03.03c.02-.01.04-.03.03-.03Z"/>
        <path class="cls-1" d="M3.85.93s-.02,0-.03,0c.01,0,.03,0,.03,0Z"/>
        <path class="cls-1" d="M.76,2.99l.07-.06s-.05.03-.07.06Z"/>
        <path class="cls-1" d="M1.08,7.63s.04.02.06.02l-.05-.03h-.02Z"/>
        <path class="cls-1" d="M.49,4.41v.03s.03.02.05.02l-.05-.05Z"/>
        <path class="cls-1" d="M.57,5.5s-.1-.01-.14-.01c.04,0,.07.02.08.04.02,0,.04-.01.07-.03Z"/>
        <path class="cls-1" d="M1.18,7.16l.03.02-.03-.02Z"/>
        <path class="cls-1" d="M.64,3.64s.03,0,.04,0c-.01,0-.02,0-.04,0Z"/>
        <path class="cls-1" d="M1.63,9.4h.02s-.02,0-.02,0Z"/>
        <polygon class="cls-1" points="2.26 8.07 2.27 8.09 2.32 8.1 2.26 8.07"/>
        <path class="cls-1" d="M4.88.91h0s-.01,0,0,0Z"/>
        <path class="cls-1" d="M11.02,5.75c.11-.08.07.19.2.07-.04,0-.12-.18-.2-.07Z"/>
        <path class="cls-1" d="M1.06,7.6l-.04-.04s.03.03.04.04Z"/>
        <polygon class="cls-1" points="11.22 5.81 11.22 5.81 11.24 5.8 11.22 5.81"/>
        <path class="cls-1" d="M7.23,1s0-.03-.01-.05c0,.01,0,.02.01.05Z"/>
        <path class="cls-1" d="M5.48.68h.04s-.03,0-.04,0Z"/>
        <path class="cls-1" d="M8.15,1.15s.02.03.06.03c0,0,0-.01,0-.01-.02,0-.03,0-.05-.02Z"/>
        <polygon class="cls-1" points="9.02 1.55 9.02 1.53 8.99 1.51 9.02 1.55"/>
        <path class="cls-1" d="M3.6,11.32l-.05-.07c.03.06,0,.12.05.07Z"/>
        <path class="cls-1" d="M1.12,7.59s-.04.02-.05,0l.03.02s.02-.02.02-.03Z"/>
        <path class="cls-1" d="M8.47.43l.15.07s-.1-.05-.15-.07Z"/>
        <path class="cls-1" d="M8.05,11.3h-.06s.04,0,.06,0Z"/>
        <path class="cls-1" d="M9.09.71s.03.08.06.1c0,0,.02,0,.03-.01l-.09-.09Z"/>
        <path class="cls-1" d="M3.55,11.25h0s0,0,0,0Z"/>
        <path class="cls-1" d="M2.19,11.76s.07.03.09.04c.15,0,.09-.12.15-.17.29-.01.12.1.23.18.22-.04.35-.21.44-.25.02.02.04.01.03.05.05-.08.15-.13.25-.19.1-.07.17-.13.15-.2.01,0,.02.01.02.02-.04-.05-.08-.11-.1-.15.04-.03.05-.15.09-.07-.02.02-.01.05-.01.09l.02-.07c.06.1-.03.08,0,.17.01-.03.03-.08.04-.12.03-.08.08-.17.1-.17,0,.17-.09.15-.04.24-.01,0-.03,0-.05,0h0s.01.03.02.04c.02.04.01.06.01.06,0,0-.02,0,.02.11h0s.03-.11.05-.09c.03-.12.04-.17.07-.29h0c.05.07-.12.49-.03.35.02-.03.06-.07.09-.09.04-.02.05-.02.07.06-.06,0-.09.03-.13.06.03.05.15.1.19.09.06,0,.1,0,.23.14-.09.02-.24-.11-.21-.07.12.23.18.03.32.11v.13s.04.02.04.02c.37.12.77-.15.93-.43.03.02.02.09.08.07-.02-.07.11-.2.12,0l.04-.16s-.01.09-.02.12c-.01.09.02-.11.04-.15,0,.02-.02.12-.03.15.02-.04.05-.04.1,0,0-.02.14.12.25.16.11.05.22.08.29.11-.02,0-.04.02-.07.03.28.05.27-.21.51-.19l-.03.03c.28-.04.48-.42.5-.58.02-.08.06-.16.15-.1-.05-.2.12.06.12-.17.08.16.04.2.05.3.06.06.18,0,.29.05l-.06.09c.07,0,.14.01.21.01,0,.05.02.11.03.16.05.01.1.02.15.03-.06-.02-.1-.09-.08-.11.21.06.5.16.54.21.2-.06.38-.15.5-.3.02.04-.04.12-.1.17.2-.25.13.06.28-.21-.04.02-.04-.06-.05-.08.14-.06.28-.42.25-.57l.07.05c.07-.32,0-.63,0-.92-.03.11-.16.09-.18,0l.11-.04c-.07-.05-.04.09-.13-.02,0-.11.13-.08.17-.02l-.04-.13s.05.02.1.03c-.07-.05.11-.23-.02-.29h.03c0-.27-.04-.39-.03-.56-.1-.02-.07-.08-.13-.14.08-.11.13-.05.25-.14.07-.1-.01-.09,0-.17.05.08.21-.01.15.09.2-.11.27-.14.54-.35-.05-.02-.09-.01-.09-.05.05-.04.14-.03.15.01v.02c.24-.26.92-.3,1-.71v.02c.04-.11.07-.22.11-.33.1-.12,0,.11.12.05.05-.39.27-.51.26-.82.32-.16.14-.76.3-1.04l-.06.02c-.06-.08.03-.1.05-.16-.05,0-.06.09-.09.04-.07-.65-.11-1.37-.41-2.01-.12-.22-.35.06-.39-.28h.14c-.39-.32-.64-.77-1.08-.99.04,0,.06-.03.1,0-.02-.13-.29-.23-.33-.17-.05-.05.02-.06,0-.12-.05-.1-.26-.06-.26-.15,0-.02.04,0,.06,0-.08,0-.25-.17-.25-.05-.13-.13-.3-.14-.4-.25-.13.06-.24-.18-.34-.05.08-.14-.22-.25-.35-.21.05-.03-.07-.08,0-.13-.12-.04-.24-.06-.24.03-.15-.27-.48.01-.54-.26-.38-.03-.72,0-1.05-.03.03-.16.36.05.37-.12-.32,0-.52.13-.82.06-.08-.03.05-.06.08-.09-.31.03-.6-.04-.88.04,0-.01.03-.03.06-.04-.05,0-.13-.02-.12.05l.05-.02c.09.11-.21.22-.21.28.08-.21-.27-.03-.14-.3-.04.02-.08.05-.07.1-.05,0-.07-.04-.02-.1-.19.06-.12.13-.29.14,0-.03.03-.05.04-.09-.08.08-.16.14-.31.14,0-.02-.02-.05.03-.05-.25.06-.4.25-.68.24.05-.17-.1-.02-.15-.15l-.14.08.08.04c-.13.03-.21.16-.33.15l.08-.08c-.08.03-.15.06-.23.1.05,0,.1,0,.15,0-.1.1.06.15-.11.17.03-.03-.12.05-.21,0h0c-.04.06-.09.13-.19.13-.04-.03-.04-.14-.07-.16-.02.12-.27.16-.28.31.01-.04-.02-.1-.04-.11v.1c-.07,0-.09,0-.1-.06-.17.08.13.12-.09.16.01-.01,0-.02.02-.05-.22.07-.32.29-.51.36-.13-.07.12-.13,0-.18-.23.2-.37.51-.57.71l.04-.03c.12.15-.21.1-.23.27,0-.04-.05-.1-.04-.08-.13.15-.2.36-.27.65l-.03-.05c-.08.09-.17.26-.22.37.03.05,0,.12.08.1-.4.28-.06.72-.33,1.01,0-.04-.03-.1-.03-.07,0,.1,0,.2.01.29.08-.02.05-.03.12-.09.05.04.08.12.08.19-.05-.13-.13,0-.18.05.03,0,.05.01.08,0-.15.14.16.03.06.22h-.04c.03.06.08.13.08.21-.09.04-.05-.08-.12-.08,0,.12.19.21.11.32-.03-.04-.05-.11-.07-.16-.1.12-.07.13-.07.22h0s-.02.2-.02.2l.02-.06c.26.1.1.28.31.43-.19-.14-.09,0-.2.01-.01.06-.02.14-.06.13.11.06-.02.17.15.26-.03.02.04.09-.05.11.07.11.04-.05.09-.06.18.12.05.48.34.63.18.16.3.13.48.24,0,.09-.13.04-.13.04.04.12.1.18.21.23-.04,0-.04.04-.04.09.07.06.13-.05.18.07-.04.02-.1.04-.16.04.1.05.22.07.33.11-.01.07-.11.03-.16.04.11.06.29.15.37.09l-.04-.07s-.03.08-.06.08c-.13,0-.1-.12-.09-.15l.07.03c.06-.2-.26-.16-.36-.28l.15-.06-.19-.02c0-.05.05-.12.11-.09-.02-.12-.1-.03-.1-.15,0-.02.01-.02.02-.01l-.1-.05s.07-.08.09-.02c-.05-.18-.26-.16-.21-.28h.02c-.17-.18-.1.05-.31-.05.05-.08.11-.16.17-.24l-.11.03s-.02-.07.02-.08c-.11-.05-.03.04-.12.02.03-.15-.18-.3-.03-.39-.09-.01-.01.13-.12.03.16-.1-.08-.14-.03-.27.1,0,.09.12.13,0-.18-.02-.02-.22-.07-.3-.13.02-.09-.19-.15-.34.04,0,.04-.31.09-.45h.02c-.14-.02-.1-.18-.12-.29.08,0,.11.03.14.09v-.1s-.06-.06-.07-.13l.09.03c.01-.13-.08-.29.02-.45-.09-.03-.28.09-.29-.11.05,0,.13.01.14.07,0-.02-.03-.07,0-.09l.06.09c.05-.07-.06-.06-.03-.12.07.02.06-.04.11-.01,0,.02-.04.05-.02.08.03-.07.09-.14.15-.16-.04,0-.09-.02-.09-.08.03-.13.09-.02.15-.08-.03-.05.04-.11-.06-.15.01-.04.06-.03.09-.03-.03-.09.12-.3-.02-.28h-.01s0,0,0,0h0s0,0,0,0c0-.27.28-.4.37-.62l.03.02c.05-.14.18-.25.18-.38.03-.03.11-.03.13,0,.06-.09.04-.13.19-.19-.04.12.06.01-.05.11.12-.07.18-.05.22-.22.02.1.15.03.19-.03h-.12c.05-.05.11-.08.16-.11l.04.11c.28-.05.29-.47.59-.37.03-.11-.16.02-.14-.1.12-.05.31.04.35.03.18,0,.08-.22.27-.25-.04-.03-.1-.13.02-.22.13-.02.21.12.14.18-.03.01-.05,0-.05-.01-.04.03-.08.07-.02.09v-.05c.08.02.24-.03.23.05.08-.06.02-.08-.06-.08.18.01.25-.07.42-.08-.03-.01-.07-.06-.04-.06.26,0,.09-.1.26-.15.11.05,0,.16.15.07.11.02.04.11,0,.15.14-.11.29,0,.38,0-.03.01-.05.03-.07.05.04-.03.08-.03.12-.04l-.06-.08s.09,0,.09.04c.04-.06-.05-.13.04-.22.07.04.19-.06.23.05-.21-.02.03.11-.14.14.03-.02.07-.02.12,0,0,.01,0,.02-.02.03.2.08.08-.13.28-.15-.02.06.05.11.08.1-.08,0-.04-.1.03-.15.13.05.14-.04.21-.03l-.08-.02c.03-.06.09-.05.18-.07,0,.05-.08.03-.05.05.1-.11.23.11.37.04.06.04,0,.12.06.15.16-.07.16.1.32.05-.04-.09-.05-.07.07-.14l-.27.03.18-.11c-.08,0-.18.04-.22.02.09-.06.08-.04.04-.11.1.14.23-.05.35.04l-.03.21c.18.1.35-.06.59.04l-.07-.05c.05-.08.16.02.24,0-.02.07.02.1.05.15,0-.05.17.05.23-.07l.08.12c.18.09.28-.14.46-.04-.08.05-.01.13-.15.13.06.02.11.06.13.01.02.05.2-.02.23.06.04-.02.07-.08.14-.05,0,.02-.01.03-.01.03.01-.03.13,0,.1-.1.1.28.53.23.59.48.13.05.29.12.4.19-.02.01-.02.03-.04,0,.11.15.2-.1.33.08.02.15-.12-.02-.1.06-.12.2.22.12.24.31h-.03c.02.12.24.09.35.22,0,0-.02,0-.03.02.17-.01.34.14.47.25-.1.02-.09-.03-.14.05.06.05.1-.11.22-.01,0,.06.02.18-.05.25-.03-.04-.05-.07-.08-.11-.06.13.1.14.12.21l-.05.02c.12.16.26.08.35.29l.03-.04c.18.05-.02.13.12.19l-.11.09c.08.05.22.21.3.35-.13-.05-.23-.19-.32-.26.03.07.09.24.17.26-.02-.03-.07-.05-.06-.09.13.06.24.16.26.33-.27.03.02.42-.21.55.11.26-.06.54-.1.83.23-.07-.01.09.2.12,0,.08-.01.11-.03.11-.06.06-.13.12-.19.17-.08.03-.02-.08-.07-.09-.07.14-.11.03-.19.1.08.01.09.09.02.15.05-.02.1-.04.14-.07,0,.24-.23.09-.24.31l-.02-.09c-.02.11-.21.29-.17.48-.03,0-.09-.03-.07-.07-.18.15-.36.49-.61.5v-.06s-.05.13-.13.11c0-.02,0-.06-.03-.05-.02.03-.1.14-.18.15l.04-.08c-.3.07-.4.32-.62.59-.12-.13-.4.23-.43.38h-.02c-.1.46.08.69.14,1.02-.16.21-.04.69-.16.94.03-.04.12.02.13.07-.04.05.08.19-.06.14h0c-.15,0-.11,0-.13.02l.13.14c-.15-.06-.13-.05-.25-.02-.08.03-.2-.03-.17-.16-.08,0-.12-.05-.26-.12l.06-.08c-.27-.26-.46-.39-.88-.33l.08-.08c-.26.03-.22.32-.34.44l-.13-.08c-.13.14-.22.32-.29.53-.05.14-.03.07-.02.18-.01-.02-.04-.05-.04-.06-.04.03-.08-.07-.08.13-.03-.13-.08,0-.14.02l.07-.07c-.12-.04-.17-.09-.29-.23-.01-.06.02-.15.04-.05-.05-.22-.11.02-.15-.18l.05-.04c-.06-.1-.06-.04-.1,0-.02,0-.03-.08-.1-.1-.06-.02-.1-.03-.11-.08-.02.06-.07.19-.13.22-.01-.03,0-.08.02-.1-.19.07-.21.41-.36.49-.02-.03-.04-.03-.05-.02.14-.26.27-.37.26-.34-.02-.12-.17,0-.1-.27-.12.21-.18.69-.34.82,0,0-.02,0-.03-.02h0s-.01,0-.01.02c-.02,0-.03,0-.04,0-.04-.06-.05-.02-.07-.02.02.1-.03.09.02.17,0,0,0,0,.03-.02,0,0,0,0,.01-.01h0s.05-.01.07-.04c0,.06-.02.13-.07.08,0,.07-.03.14-.04.17-.04-.07-.08-.14-.1-.2-.02-.06-.02-.1,0-.14-.04,0-.14.02-.26-.26-.12-.03-.2-.04-.25-.03-.04-.03-.02-.09-.03-.13.02,0,.05.04.07.03-.07-.03-.13-.11-.15-.15,0-.04-.03-.01-.04.02-.1.04.07-.08-.08,0l.02-.03c-.08,0-.19-.02-.33.02-.3.42-.33.67-.67.61.03,0,.04.01.06.03-.12.01-.2.01-.29,0-.13-.02-.2-.14-.24-.27-.05-.17-.05-.36.01-.54.03-.14-.05-.16-.11-.25l.11-.03-.12-.15c-.08-.22.27-.36.13-.65l-.07.03c.02-.1-.01-.32.07-.29-.01-.01-.07-.04-.03-.07h.06s-.07-.25-.07-.25c.06-.18.22.06.26-.21,0-.1-.12-.31-.16-.28,0,.04-.05.1-.11.09v-.1c-.17-.04-.33-.14-.48.08l.08.18-.09.04v-.14c-.07.07-.01.13.03.19-.04,0-.08.03-.1.06l.14.18c-.07.01-.12-.09-.17.02.06.08.15-.06.18.07-.08.07-.14.04-.09.14-.04,0-.07-.01-.08-.05.04.09,0,.22.08.27-.1.08,0,.28-.15.26.04.03.11.15.12.23-.18-.15-.02.29-.22.25.17.11.08.39.18.58-.01,0-.04-.03-.03-.05,0,.11-.05.15-.07.23.14,0,.19.17.3.24-.09.19-.18-.06-.29.02.09-.05.19.29.27.19-.01.18.02.13-.04.28.15-.09.12.1.27.11.13.17-.03.17.19.24,0,0,.01,0,.02,0,.06.04.01.06-.05.07-.04,0-.11,0-.1-.02ZM5.25,11.33h0s-.04.06-.06.08c.01-.01.04-.05.05-.08ZM5.32,11.21s-.03.03-.04.06c-.02-.03-.04-.07-.03-.08,0,.03.04.01.06.03ZM4.65,10.95s.02,0,.03.02c0,0-.01.01-.02.02h0s0-.03-.01-.04Z"/>
        <polygon class="cls-1" points="4.65 11.09 4.65 11.1 4.67 11.12 4.67 11.09 4.65 11.09"/>
        <path class="cls-1" d="M.73,3.02h0s-.01,0-.02,0c0,0,.01,0,.01,0Z"/>
        <polygon class="cls-1" points="7.58 11.11 7.59 11.09 7.55 11.09 7.58 11.11"/>
        <path class="cls-1" d="M.03,4.54s-.02,0-.03.02c0,0,.02-.01.03-.02Z"/>
        <path class="cls-1" d="M.04,5.29l-.02.11s.02-.08.02-.11Z"/>
        <path class="cls-1" d="M.11,5.87s.03,0,.04,0h0s-.04,0-.04,0Z"/>
        <path class="cls-1" d="M5.44.02h.02c.05-.02.02-.02-.02,0Z"/>
        <path class="cls-1" d="M2.85.72s.04-.05.06-.08c-.05.01-.08.02-.06.08Z"/>
        <polygon class="cls-1" points="8.45 .42 8.45 .43 8.47 .43 8.45 .42"/>
        <path class="cls-1" d="M3.03.6c-.05,0-.09.02-.12.05.04,0,.08-.02.12-.05Z"/>
        <path class="cls-1" d="M1.49,7.98l.02.02s.01-.01.01-.01h-.03Z"/>
        <path class="cls-1" d="M1.52,7.98h.03s-.02,0-.03,0Z"/>
        <path class="cls-1" d="M1.62,8.01l-.07-.02s.04.03.07.02Z"/>
        <path class="cls-1" d="M.93,7.42l-.03.02s.02,0,.03-.02Z"/>
        <path class="cls-1" d="M.77,7.24c.03.05.03.16.1.21h.03c-.06,0-.05-.2-.13-.21Z"/>
        <path class="cls-1" d="M.68,6.21c.01.06.02.12.04.17.02-.04.05-.1.09-.03.01-.25-.06.08-.14-.14Z"/>
        <path class="cls-1" d="M.56,5.68c.04.09.05-.02.08-.02-.05-.05-.06-.06-.08.02Z"/>
        <path class="cls-1" d="M1.48,2.05l.06.07c.04-.06-.02-.02-.06-.07Z"/>
        <polygon class="cls-1" points="1.78 1.19 1.68 1.19 1.7 1.28 1.78 1.19"/>
        <polygon class="cls-1" points="2.51 1.49 2.49 1.52 2.58 1.43 2.51 1.49"/>
        <path class="cls-1" d="M8.83,1.55l.03-.11c-.05,0-.12.1-.03.11Z"/>
        <path class="cls-1" d="M10.91,3.38c-.04.05-.03.14.04.16-.02-.06,0-.13-.04-.16Z"/>
        <path class="cls-1" d="M8.39,10.48v-.04s-.01.02-.01.04h.01Z"/>
      </g>
      <g>
        <g>
          <path d="M2.53,6.4c.08,0,1.14-.19,1.19-1.26s-1.17-1.08-1.85-.56-.87,1.92.67,1.82Z"/>
          <g>
            <path class="cls-1" d="M2.55,6.63s0-.1-.01-.09v.12s.01-.03.01-.03Z"/>
            <path class="cls-1" d="M2.46,6.42c-.01.06-.02.16-.01.26.01-.11.02-.07.02-.2.01-.01.02.04.02.08,0-.03.02.03.02-.05-.02-.09-.04-.09-.05-.02,0-.03,0-.06,0-.08Z"/>
            <path class="cls-1" d="M1.66,5.99h0s0,0,0,0Z"/>
            <path class="cls-1" d="M1.59,5.52s.01,0,.02,0c0,0-.01,0-.02,0Z"/>
            <path class="cls-1" d="M1.72,5.46h0s.02,0,0,0Z"/>
            <path class="cls-1" d="M1.66,5.99l.02-.03s-.02.02-.02.03Z"/>
            <path class="cls-1" d="M2.31,6.7s0-.02.01-.03c0,0-.01.01-.01.01v.02Z"/>
            <path class="cls-1" d="M1.87,6.04h0s.02-.02.03-.04l-.03.04Z"/>
            <path class="cls-1" d="M2.02,6.08s-.03.09-.05.13c.01-.04.02-.06.03-.06,0-.02.01-.04.02-.07Z"/>
            <path class="cls-1" d="M2.28,6.3h0s0,0,0,0Z"/>
            <path class="cls-1" d="M1.8,5.96s.02-.02.02-.03l-.02.03Z"/>
            <path class="cls-1" d="M2.92,6.78v-.02s0,.02,0,.02Z"/>
            <polygon class="cls-1" points="2.53 6.38 2.53 6.37 2.53 6.31 2.53 6.38"/>
            <path class="cls-1" d="M1.88,5.36h0s0,0,0,0Z"/>
            <path class="cls-1" d="M2.83,4.65c-.02-.09.02-.11,0-.21,0,.04-.02.15,0,.21Z"/>
            <path class="cls-1" d="M2.31,6.69h0s0,0,0,0Z"/>
            <polygon class="cls-1" points="2.83 4.44 2.83 4.44 2.83 4.43 2.83 4.44"/>
            <path class="cls-1" d="M1.97,5.07s-.03-.02-.04-.02c0,0,.02.01.04.02Z"/>
            <path class="cls-1" d="M1.72,5.21h.02s-.02,0-.02,0Z"/>
            <path class="cls-1" d="M1.95,4.88s.02.01.01,0c0,0,0,0,0,0,0,.01.01.02,0,0Z"/>
            <polygon class="cls-1" points="2.06 4.79 2.05 4.77 2.05 4.78 2.06 4.79"/>
            <path class="cls-1" d="M3.52,6.41l-.06-.06c.05.05.04.1.06.06Z"/>
            <path class="cls-1" d="M2.31,6.65s0,.04,0,.04h0s0-.03,0-.04Z"/>
            <path class="cls-1" d="M1.42,4.31l.04-.02s-.03,0-.04.02Z"/>
            <path class="cls-1" d="M4.11,4.85h.01s0,0-.01,0Z"/>
            <path class="cls-1" d="M1.54,4.21s.05.03.06.04c0,0,0-.01-.01-.02l-.05-.02Z"/>
            <path class="cls-1" d="M3.46,6.34h0s0,0,0,0Z"/>
            <path class="cls-1" d="M3.38,6.68s-.05-.12-.08-.19c.02-.05.07.07.12.12,0-.04-.04-.16-.03-.16.01.02.02.02.03.05-.04-.1.07-.05.01-.18l.02.02s-.09-.1-.11-.14c0-.01-.03-.08.03-.02,0,0,.01.03.03.05v-.04c.08.09,0,.05.06.12,0-.05-.04-.15,0-.14.08.09-.01.07.08.13h-.06c.14.12-.03,0,.12.13.06,0,0-.09.07-.09-.04-.06-.07-.07-.11-.12-.04-.13.25.17.18.02-.05-.06-.16-.17-.08-.14l.09.1s-.13-.15-.03-.13c.04.04.01.06.03.06.1.04-.05-.07-.03-.09l.1.07c.02-.06-.02-.15-.01-.21.03.02.06.05.09.05-.01-.1.09-.13.18-.18l-.09-.06s.05,0,.06.02c.05-.01-.06-.02-.09-.05,0-.02.06,0,.09.02-.06-.08-.14-.18-.02-.21l.03.02c.05-.03-.2-.09-.09-.1h.02c.06-.07-.03-.16.13-.21-.15-.02.07-.08-.14-.09.1-.05.14-.03.21-.11,0-.02-.13-.02-.15-.04h.11s-.11-.03-.11-.03l.13-.03-.03-.02s-.04.03-.08.03c-.05-.03.06-.1.11-.11l-.11-.07s.06,0,.09,0c-.12-.02.11-.04,0-.06-.02.01-.06.01-.08.02.06-.04.04-.09,0-.12l.07-.02c-.01-.08-.09-.13-.14-.2-.01.04-.13.1-.15.09l.09-.07c-.07.03-.02.04-.11.07,0-.03.1-.09.14-.09h-.05s.05-.03.08-.06c-.07.03.05-.13-.06-.07l.03-.02c-.06-.07-.12-.07-.17-.11-.07.07-.07.04-.14.09-.02-.05-.02-.14-.07-.17-.06.02-.05.07-.09.11.04-.08-.01-.1.04-.14-.07-.01-.09-.02-.19.02,0,.04,0,.06-.02.08-.02,0-.02-.05,0-.09h0c-.11.1-.14-.32-.25-.14h0s-.08.08-.08.08c-.03-.02.03-.07,0-.12-.09.14-.12-.03-.18.07-.06-.27-.16.03-.24-.13v.06c0,.06-.01-.03-.03-.05,0,.05.03.05.02.09-.12.09-.29-.03-.45-.04-.06,0,.09.31-.02.2l-.03-.11c-.04.17-.2.08-.23.24,0-.03-.03-.06-.02-.06-.06-.06-.07.03-.03.09-.02,0-.04-.05-.06-.08-.05-.03.01.12-.04.06,0-.01-.01-.03-.01-.03.01.04-.06.03,0,.1-.06-.02-.03.07-.09.05.05.1-.09,0,0,.13-.1-.12-.14-.05-.1.02-.03-.04-.05-.02-.09-.08-.02.02-.02.06.04.12-.18-.09.05.18-.16.04,0,.12.02.21.01.29-.13-.09.03-.07-.11-.16.01.1.11.2.04.24-.03,0-.06-.04-.08-.06.03.09-.08.11-.02.2-.01,0-.03-.02-.03-.03,0,.01-.03.02.04.04v-.02c.09.03.17.13.22.15-.19-.09-.07.03-.3-.09,0,.01.04.03.08.05-.02,0-.04,0-.09-.03.02.05.1.06.09.1-.03-.01-.04-.02-.08-.04.06.04.12.08.08.1-.02,0-.05-.01-.04-.02,0,.06.16.13.08.17-.15-.04-.05.01-.18,0l.04.04h.06s.09.06.04.08l-.05-.03.02.06.05-.03c.07.03.17.01.13.04-.01,0,0,.02-.08.03h0s.09.03.05.05c-.04,0-.15,0-.17,0,.11.01.03.07.15.08-.03,0-.1,0-.11,0h.09s-.04.02-.1.03c-.01.04.16-.03.1.02,0,0-.02,0-.03,0-.03.05.07.08.04.13-.12.05-.04-.03-.15.01.04.07.19.09.19.15v-.02c.18-.07-.06.08.04.07-.02,0-.1.04-.08.03,0,.06.09.06.17.07l-.04.02s.02.07.03.11c.04-.03.05-.01.09-.07-.11.26.2-.01.13.2,0,0-.04.03-.03.03h.08c.04-.08.02-.06.04-.12.03-.04.06-.06.07-.06-.05.04-.06.11-.07.16l.04-.07c-.04.14.08-.14.07-.04l-.02.04s.06-.06.06-.04c-.03.09-.03.03-.06.1.02,0,.11-.15.09-.06-.02.02-.03.02-.05.04-.02.11,0,.08,0,.11h0s.02.06.02.06v-.03c.1-.23.07-.03.15-.17-.07.14-.03.08-.06.19,0,.03.01.07,0,.1.04-.08.02.08.07-.04,0,.03.02,0,0,.09.03-.02,0-.06.02-.1.05-.11.07.15.14,0,.05-.06.07-.17.11-.23,0,.06-.02.12-.02.12.02.05.04.04.06,0,0,.03,0,.06,0,.09.02,0,.01-.12.03-.07,0,.04-.01.1-.02.14.02-.03.04-.1.06-.13,0,.06-.01.09-.02.13.02-.03.06-.05.07-.15v-.03s0,.08-.02.1c-.02.07-.03-.03-.03-.07v-.02c0-.2-.04.03-.07.02l.02-.15-.03.12s0-.12,0-.14c-.02-.07-.02.05-.03-.03,0-.01,0-.02,0-.03l-.02.04s0-.1.01-.08c-.02-.09-.06.1-.06,0h0s-.01.1-.06.22v-.27s0,.11,0,.11c0,0-.01-.01,0-.06-.03.07,0,.05-.02.11,0-.1-.07.04-.04-.13-.02.08,0,.06-.03.12.03-.18-.03.02-.03-.06.03-.09.03-.04.04-.12-.05.15-.02-.04-.05-.02-.04.12-.05.04-.09.07.02-.04-.02-.08-.02-.13v-.02c-.05.12-.06.08-.09.1.04-.07.05-.09.08-.12h-.01s-.04.05-.05.05l.05-.08s-.1.08-.08.01c-.06.07-.13.22-.19.25.03-.04.08-.11.1-.12,0,0-.03.03-.02,0l.06-.06s-.05.05-.05.04c.04-.05.02-.04.06-.09,0,0-.01.03,0,0,0-.02.02-.06.05-.1-.02.03-.06.07-.07.07-.02,0,.05-.07.07-.1-.04.03,0,0-.08.06,0,0,.03-.04.05-.06-.04.03-.03-.02-.11.06h0s0,0,0,0h0s0,0,0,0c-.1.03,0-.09-.05-.1l.03-.02s-.04-.03-.11-.01c0,0,.05-.04.09-.05-.03,0-.07,0-.02-.03.06,0,.05-.02.05,0,.02-.03.08-.05-.02-.04.09-.02.11-.04.08-.04l-.06.03s0-.02,0-.03l.12-.02c.13-.04-.25-.03-.01-.08-.08,0-.06.02-.15.02.01-.02.18-.05.18-.05.06-.02-.17-.02-.13-.05-.04,0-.15,0-.19-.03.02-.02.18-.01.21,0,0,0-.01,0-.02,0,.01,0,.03.02.08.01h-.04s.04-.03.11-.02c-.04-.02-.07-.01-.09,0,.06-.02,0-.03.05-.05-.02,0-.07,0-.07,0,.06-.03-.07-.03-.09-.06.07,0,.15.04.1,0,.05,0,.11.02.14.04-.07-.04.06-.02.08-.03l.03.02s-.02-.02-.02-.02l-.08-.02s.02,0,.05,0c-.05-.02-.13-.04-.2-.07.04,0-.03-.04.07,0-.05.01.11.03.12.06-.01,0,0-.01,0-.01.01,0,.02,0,.03.01.1.01-.11-.05-.1-.08.06.03.11.04.1.03,0,0-.1-.03-.14-.06.05,0-.03-.03-.02-.04h-.03c-.06-.03-.04-.03-.06-.05.04.02.02.03.05.03-.09-.06.12.02.06-.03.04.01.1.05.13.06-.06-.06.08.02.04-.03-.08-.04-.06-.02-.12-.08l.03.06-.09-.08s.03.05.02.05c-.05-.04-.04-.03-.1-.06.12.05-.05-.07.04-.05l.18.11c.09.03-.06-.1,0-.1h-.04c-.06-.06,0-.04-.02-.07.05.04.08.05.12.07-.04-.03.02-.01-.08-.11l.08.05s-.13-.16-.09-.17c.05.06.09.08.12.13,0,0,.02,0-.01-.04.03.03-.05-.09,0-.04-.02-.02-.07-.08-.05-.08,0,.01.02.03.02.03-.02-.02-.02-.05-.08-.1.17.14.06-.08.2.06,0-.03.02-.07.03-.08.01.02.02.03.01.03.06.04-.09-.18-.02-.14.07.09.02.06.05.09.12.19.02-.05.1.06h0c.05.08,0-.08.03-.08,0,0,0,.02.02.03-.04-.11-.02-.16,0-.2.03.09,0,.05.05.13,0-.02-.06-.13-.05-.17.03.04.06.07.1.16h-.02c.06.13.02,0,.04.01l.02.05s-.02-.16.02-.16l-.02-.04c-.02-.14.04.07.03-.04l.05.13s0-.15.03-.17c.01.1,0,.16,0,.23.01,0,.04-.02.03-.09,0,.01,0,.05,0,.03-.01-.11,0-.17.03-.17.05.26.08.05.14.25.03-.1.09.03.13.01-.03-.21.01,0,0-.22.01-.01.02-.01.02,0l.04.13c0,.06-.01.05-.01.1.02.02,0,.09.02.15,0-.08.01-.11.02-.08v-.1c.03-.12,0,.18.04.07v.07s.03,0,.08-.16c0,.03-.01.08-.02.1.02.03.12-.16.11-.05l-.02.05s.04-.09.03-.04c0,.02-.02.05-.02.05,0-.02.05-.08.04-.05l-.03.05c0,.07.1-.11.15-.12-.09.13-.1.18-.11.2v.02s.1-.08.17-.08c-.13.11-.02.08-.1.15.02-.01.11-.05.13-.05-.03.02.11-.02-.02.03h0c-.13.05-.09.04-.09.06l.18-.05c-.26.09.12.08-.12.14.05,0,.05.02.09.02h-.1s-.04.04-.01.07h-.07s.29.03.29.05h-.15s-.13.05,0,.1c-.02,0-.06-.01-.07-.02,0,.02-.11.03.09.07-.13-.03-.02.03.03.07l-.09-.03c.12.05.15.06.18.09-.01,0-.08-.02-.05-.02-.06,0,.08.04.02.05l-.06-.03s.02.02.08.06c.03.03-.04.03-.12,0,.05.02.11.06.08.06-.03-.01-.05-.03-.06-.03-.07,0,.08.09-.02.07-.03-.01-.04-.02-.05-.03.01-.02.03-.03.03-.03-.08-.04-.1-.03-.21-.1.06.04.17.13.13.13,0,0-.02,0-.03-.01h0s0,0,0,.01c-.02,0-.03,0-.03,0-.06-.04-.05,0-.05,0,.08.06.06.06.14.09,0,0,0,0,0-.02,0,0,0,0,0,0h0s0-.02,0-.02c.04.03.07.06.02.04.05.04.1.08.12.1-.12-.07-.2-.09-.27-.14.03.06-.01.07.11.21.01.02-.05-.03-.07-.05-.01-.02,0-.02-.02-.04.02.05-.02.05.07.15-.06-.03-.07-.1-.08-.06l-.02-.03c-.17-.12.13.33-.09.15.01.01.02.02.03.03-.13-.05-.1.19-.26.06-.04-.03,0,.05,0,.12l-.04-.1.02.12c0,.1-.14-.23-.13-.05l.03.07s-.04.05-.06-.03c0,.01.01.07,0,.04v-.05s-.03.1-.03.1c-.04-.03-.05-.22-.08-.22,0,.01,0,.05,0,.1,0,.07,0,.13,0,.16,0-.11.01,0,.02.03v.03c0,.16-.03.34.08.44l.02-.11.03.08h-.03c.03.08.04.01.04-.03.01.04.02.07.03.08v-.16c.02.06.01.13.05.16,0-.07-.05-.14-.03-.19.03.07.05.13.05.06.01.04.02.07.01.09,0-.05.04-.03.03-.12.04.08.05-.04.1.11,0-.04,0-.13,0-.14.03.19.06-.01.12.18-.04-.16.05-.1.05-.2,0,.01.01.04,0,.03.03,0,.05.05.08.07-.06-.13-.04-.17-.06-.25.08.11.06.15.12.26-.05-.1,0-.12-.06-.2.06.06.03.03.1.12-.08-.15,0-.04-.03-.14.07.06.09.14.09.07.04.04.05.11.05.11ZM3.78,5.88h0s0,.02,0,.02c0,0,0,0,0-.02ZM3.81,5.82s-.01.01-.02.02c-.03-.01-.06-.03-.06-.04.02.01.04.01.07.01ZM3.16,5.57s0,0,.03,0c0,0,0,0,0,.01h0s-.03-.01-.04-.02Z"/>
            <polygon class="cls-1" points="3.27 5.65 3.27 5.65 3.29 5.66 3.27 5.64 3.27 5.65"/>
            <path class="cls-1" d="M1.65,6h0s0,0,0,0h0Z"/>
            <polygon class="cls-1" points="4.16 4.93 4.14 4.93 4.16 4.94 4.16 4.93"/>
            <path class="cls-1" d="M1.68,6.45v.02s0-.02,0-.02Z"/>
            <path class="cls-1" d="M1.82,6.53v.04s0-.03,0-.04Z"/>
            <path class="cls-1" d="M1.92,6.61s0-.03.01-.04h0s-.01.04-.01.04Z"/>
            <path class="cls-1" d="M1.12,4.95h0s0-.01,0,0Z"/>
            <path class="cls-1" d="M1.21,5.55s-.03-.01-.05-.02c0,0-.01.02.05.02Z"/>
            <polygon class="cls-1" points="1.41 4.32 1.41 4.32 1.42 4.31 1.41 4.32"/>
            <path class="cls-1" d="M1.17,5.51s-.02.02,0,.03c0,0,.02-.02,0-.03Z"/>
            <path class="cls-1" d="M2.41,6.71h0s0-.01,0-.01h0Z"/>
            <path class="cls-1" d="M2.42,6.7h0s0-.01,0,0Z"/>
            <path class="cls-1" d="M2.44,6.66v.02s0,0,0-.02Z"/>
            <path class="cls-1" d="M2.26,6.66v.04s0-.02,0-.04Z"/>
            <path class="cls-1" d="M2.22,6.67s.02.08.04.06v-.03c0,.05-.03-.09-.04-.03Z"/>
            <path class="cls-1" d="M2.1,6.21l.02.03s0-.09.02-.1c-.02-.12,0,.09-.04.07Z"/>
            <path class="cls-1" d="M2.03,6.14s.01-.05.02-.07c-.02.03-.02.04-.02.07Z"/>
            <path class="cls-1" d="M1.62,5.81l.08-.03s-.03.01-.08.03Z"/>
            <polygon class="cls-1" points="1.14 5.81 1.09 5.84 1.17 5.83 1.14 5.81"/>
            <polygon class="cls-1" points="1.76 5.64 1.78 5.64 1.74 5.63 1.76 5.64"/>
            <path class="cls-1" d="M2.09,4.87l-.07-.09s.08.12.07.09Z"/>
            <path class="cls-1" d="M2.43,4.57c.02.05.05.08.04.03-.01,0-.04-.04-.04-.03Z"/>
            <polygon class="cls-1" points="3.27 4.93 3.23 4.94 3.26 4.94 3.27 4.93"/>
          </g>
        </g>
        <g>
          <path d="M5.38,7.56s-.51.73-.78.43.41-1.31.93-1.28.95,1,.81,1.23-.95-.38-.95-.38Z"/>
          <g>
            <path class="cls-1" d="M5.52,7.37s-.06.08-.05.07l.07-.09-.03.02Z"/>
            <path class="cls-1" d="M5.43,7.57s.11-.11.16-.21c-.07.08-.04.05-.13.15-.01,0,.01-.04.04-.07-.02.02,0-.03-.04.03-.05.08-.04.09.02.04-.01.02-.03.05-.05.06Z"/>
            <path class="cls-1" d="M6.05,8.12v-.02s0,.02,0,.02Z"/>
            <path class="cls-1" d="M6.57,7.68s.02,0,.03,0c0,0-.02,0-.03,0Z"/>
            <path class="cls-1" d="M6.67,7.55h0s.01,0,0,0Z"/>
            <path class="cls-1" d="M6.05,8.12v.04s0-.03,0-.04Z"/>
            <path class="cls-1" d="M5.68,7.4s-.01.01-.02.02c0,0,.01,0,.01,0h.01Z"/>
            <path class="cls-1" d="M5.78,8.12h0s-.02.02-.02.04l.03-.04Z"/>
            <path class="cls-1" d="M5.62,8.05s.05-.08.08-.12c-.02.03-.03.05-.04.05,0,.02-.02.04-.03.06Z"/>
            <path class="cls-1" d="M5.48,7.75h-.01s0,0,.01,0Z"/>
            <path class="cls-1" d="M5.9,8.19s0,.03-.01.03v-.03Z"/>
            <path class="cls-1" d="M4.91,7.4h.01s-.01,0-.01,0Z"/>
            <polygon class="cls-1" points="5.4 7.57 5.4 7.58 5.45 7.61 5.4 7.57"/>
            <path class="cls-1" d="M6.73,7.32h0s0,0,0,0Z"/>
            <path class="cls-1" d="M5.15,6.37c.05.07,0,.12.07.2-.02-.03-.02-.16-.07-.2Z"/>
            <path class="cls-1" d="M5.67,7.42h0s0,0,0,0Z"/>
            <polygon class="cls-1" points="5.22 6.57 5.22 6.57 5.23 6.58 5.22 6.57"/>
            <path class="cls-1" d="M6.49,6.96s-.02.02-.03.03c0,0,.02-.01.03-.03Z"/>
            <path class="cls-1" d="M6.51,7.3h0s0,0,0,0Z"/>
            <path class="cls-1" d="M6.28,6.9s.01-.02,0-.01c0,0,0,0,0,0,.01,0,.02,0,0,0Z"/>
            <polygon class="cls-1" points="6.17 6.77 6.16 6.79 6.17 6.79 6.17 6.77"/>
            <path class="cls-1" d="M4.73,7.63l.05.07c-.04-.06-.05-.08-.05-.07Z"/>
            <path class="cls-1" d="M5.65,7.45s.02-.03.03-.03h0s-.02.03-.02.03Z"/>
            <path class="cls-1" d="M5.65,7.36v-.02s0,.02,0,.02Z"/>
            <path class="cls-1" d="M5,7.59h0s0,0,0,0Z"/>
            <path class="cls-1" d="M5.61,7.32s.04-.04.05-.05c0,0-.01,0-.02.02l-.03.04Z"/>
            <path class="cls-1" d="M4.78,7.71h0s0,0,0,0Z"/>
            <path class="cls-1" d="M4.7,7.47s.08.1.12.16c0,.04-.07-.07-.11-.12.02.03.08.13.07.13-.01-.02-.02-.02-.03-.04.05.09-.02.02.04.13l-.02-.03c.04.05.07.11.1.15,0,0,.03.08-.02,0,0,0-.01-.03-.02-.05v.03c-.05-.1,0-.04-.05-.12.01.04.05.13.02.11-.05-.11,0-.05-.06-.13l.03.03c-.09-.16,0,0-.09-.16-.02-.03.02.06,0,.03.03.06.04.09.06.15.02.07-.02-.03-.03-.06,0,.03,0,.02.02.05,0,0,.01.05,0,.06h0s0,0,0,.04c0-.01,0-.01,0-.01,0,.01,0,0,0,.02h0s0,.02.01-.01c0,0,0,0,0,0l.03-.03s0,0,.01-.01h0s0,0,0,0l-.06.05h0s0,0,0,0h0s0,0,0,0c.01-.01.01,0,.03-.01h.02s0-.01,0-.01h.01s.02,0,0,0c.1,0-.06,0,.06-.02h.03s-.21-.02-.11-.03h.02s-.04-.07.12-.05c-.14-.05.07,0-.12-.08.1.02.14.04.21.04.01,0-.11-.06-.13-.08l.1.05-.1-.06.12.05-.02-.02s-.05-.02-.07-.03c-.04-.04.09,0,.13.03l-.06-.08s.05.04.07.05c-.09-.07.1.05.02-.01-.02-.01-.05-.03-.07-.05.06.03.07.01.06-.02l.06.04s0-.06.02-.09c-.03-.01-.14-.09-.14-.11l.09.07c-.05-.05-.04-.02-.1-.08.02,0,.11.07.13.1l-.02-.03s.04.03.07.06c-.05-.05.1.05.01-.03l.03.02s0-.05,0-.08c-.07-.07-.05-.06-.11-.12.04,0,.11.05.11.03-.02-.05-.06-.06-.09-.11.06.06.07.04.11.1,0-.03,0-.04-.01-.11-.03-.03-.04-.04-.06-.06,0-.02.04.02.06.05h0c-.05-.12.22.17.13,0h0s-.03-.09-.03-.09c.02,0,.03.06.06.11-.06-.14.02.01,0-.09.09.25.02-.03.06.14v-.06c-.01-.06,0,.04,0,.05,0-.05,0-.06,0-.09,0-.03.02-.02.02,0,.01.04,0,.12,0,.15,0,.02.12-.31.07-.16l-.05.11c.08-.12,0,0,.1-.07-.02.02-.04.04-.04.04-.05.07.01.02.06-.03,0,.01-.04.05-.06.07-.03.04.09-.06.03,0,0,.01-.02.02-.03.02.03-.03,0,.02.08-.05-.02.04.05,0,.02.04.09-.06-.02.05.1-.04-.12.1-.08.1-.02.06-.04.03-.03.04-.09.07,0,0,.04,0,.1-.05-.14.13.15-.05-.04.1.09-.02.16-.02.21,0-.14.07-.03-.03-.18.06.07,0,.2-.05.18,0-.02.02-.06.03-.09.04.07,0,.01.06.1.05-.01,0-.03,0-.04.01,0,0-.02.02.05,0h-.02c.09-.05.21-.06.26-.08-.2.07-.04.05-.29.13.01,0,.05,0,.09-.03-.01.01-.04.02-.09.04.04,0,.11-.03.12-.01-.03,0-.05.01-.09.02.07-.01.14-.03.11,0-.02,0-.05.01-.05.01.02.02.19,0,.13.04-.15.03-.05.02-.17.05h.04s.06-.02.06-.02c0,.01.1,0,.06.02h-.06s.03.02.03.02l.05-.02c.07,0,.16-.03.13,0-.01,0,0,.02-.08.03h0s.09,0,.05.02c-.04,0-.15,0-.17,0,.11,0,.03.02.15.03-.03,0-.1,0-.11,0h.09s-.04,0-.1,0c-.02,0,.17.02.09.02,0,0-.02,0-.03,0-.02.02.01,0,.06.04.01.01-.04-.03-.03-.02.05.03.02.01.03.01-.02-.02-.01-.06-.02-.07v.02c.02.19-.01-.09,0,0,0-.01,0-.06,0-.08,0-.03-.02.04-.06.09l.02-.05s-.02-.03-.02-.06c-.02.04-.02.03-.04.1.06-.27-.14.1-.08-.12l.02-.03-.05.03c-.03.07-.02.05-.04.11-.03.04-.05.07-.06.07.04-.04.06-.12.07-.16l-.04.07c.05-.14-.08.14-.06.04l.02-.04s-.05.06-.06.04c.04-.08.03-.03.07-.1-.01,0-.11.14-.08.05.02-.02.03-.02.04-.04.04-.1.03-.08.03-.1h0s0-.05,0-.05v.03c-.15.2-.06.02-.17.15.1-.12.05-.07.11-.16,0-.03.02-.06.04-.09-.05.07.02-.07-.06.03.02-.03,0,0,.04-.08-.03.02-.03.05-.05.09-.08.09.03-.15-.08-.03-.06.04-.13.13-.18.16.02-.05.08-.1.08-.1.02-.05,0-.05-.03-.02.02-.02.03-.05.05-.08-.01,0-.08.1-.06.05.02-.03.06-.08.09-.11-.03.02-.08.06-.1.08.03-.05.06-.07.09-.1-.03.01-.06.02-.12.1v.03s.03-.07.05-.08c.05-.05,0,.04-.02.07h-.02c-.11.18.05,0,.06.03l-.09.12.09-.09s-.06.1-.08.12c-.03.07.04-.04,0,.04,0,.01-.01.02-.01.02l.04-.03s-.06.09-.05.06c-.03.09.1-.07.04.03h0c.06-.02.06-.08.15-.17l-.13.23.06-.09s0,.02-.02.05c.05-.05.02-.04.07-.09-.04.09.07-.01-.02.13.05-.07.02-.06.06-.1-.09.16.04-.02,0,.07-.05.08-.04.03-.07.11.09-.13.01.05.04.03.07-.11.05-.03.1-.06-.02.04,0,.08,0,.13v.02c.05-.11.06-.08.09-.1-.04.07-.05.09-.08.12h.02s.04-.05.05-.05l-.05.08s.09-.08.09-.01c.04-.08.09-.24.13-.28-.02.04-.05.12-.07.14,0,0,.02-.03.02-.01l-.04.07s.03-.06.04-.05c-.02.07-.02.05-.04.1,0,0,0-.03-.01,0,0,.02,0,.06-.01.11.01-.04.04-.09.05-.09.02,0-.02.08-.02.12.02-.04.02,0,.06-.09,0,0,0,.05-.02.08.03-.04.06,0,.08-.1h0s0-.01,0-.01h0,0c.06-.09.07.08.13.04v.03s.08-.02.09-.1c0,0,.04.05.04.1.03-.04.01-.07.09-.04,0,.07.04.04-.02.06.06.01.13.02.11-.09.04.08.14.02.11-.02h-.08s.02-.04.04-.06l.1.06c.2-.11-.2-.21.05-.25-.08-.02-.06.04-.15.02.02-.03.18-.06.18-.07.06-.05-.17-.03-.13-.07-.04.01-.15.03-.19.01.01-.02.17-.06.2-.05,0,0,0,.01-.02.01.02,0,.04.01.08,0h-.04s.03-.05.1-.05c-.04-.01-.07,0-.09.02.05-.04,0-.05.02-.09-.02.01-.07.02-.07.02.04-.06-.08,0-.11-.02.06-.03.15-.04.09-.05.04-.03.1-.04.14-.04-.08,0,.03-.07.04-.09h.04s-.02,0-.03-.01l-.08.04s0-.02.04-.03c-.05,0-.13.05-.21.06.04-.02-.05-.01.05-.06-.02.05.1-.04.13-.02-.01,0-.02,0,0-.02.01,0,.02,0,.03,0,.08-.07-.12.03-.13,0,.06-.02.11-.05.09-.05,0,.01-.09.05-.14.05.04-.04-.04,0-.04-.02l-.02.02c-.06.02-.06,0-.08,0,.04-.02.04,0,.05-.02-.11.03.09-.08.01-.07.03-.03.11-.05.13-.07-.09.01.06-.07-.01-.06-.07.05-.05.04-.13.06h.07s-.12.04-.12.04c0,.01.06,0,.05.01-.07.02-.05.01-.11.05.1-.07-.08,0-.01-.05l.18-.1c.07-.08-.12,0-.1-.06l-.02.03c-.07.04-.02-.02-.06-.01.06-.04.08-.06.11-.08-.04.03-.01-.03-.13.04l.07-.07c.01-.05-.19.08-.18.04.07-.04.1-.08.16-.09,0,0,0-.03-.04,0,.03-.03-.09.03-.05-.02-.03.01-.09.06-.09.04.01,0,.03-.02.03-.02-.03.02-.05.01-.1.07.15-.16-.07-.06.05-.2-.03,0-.07,0-.09-.02.02-.01.02-.02.02-.02.02-.07-.15.13-.12.06.06-.09.05-.03.08-.07.15-.17-.05,0,.01-.12h.01c.03-.08-.09.03-.11,0,0,0,.01-.02.02-.03-.09.08-.14.09-.18.11.05-.07.03-.03.07-.12-.02,0-.07.13-.1.14.02-.05.02-.1.05-.19h.03c.04-.11-.04,0-.04-.03l.02-.05c-.05,0-.1.13-.14.11v.04c-.06.12,0-.08-.05,0l.02-.14s-.08.12-.11.14c.03-.1.07-.15.11-.2-.02,0-.06,0-.08.07,0-.01.02-.04.03-.02-.04.1-.06.15-.09.15.02-.27-.08-.06-.11-.27-.05.1-.14-.02-.22.02.09.19-.02.01.05.22,0,.02-.02.02-.02,0l-.09-.1c-.04-.05,0-.05-.02-.09-.05,0-.05-.08-.1-.12.04.07.03.11,0,.09l.08.07c0,.13-.13-.14-.12,0l-.02-.07c0,.05-.09.05-.01.21-.02-.02-.06-.06-.06-.08-.07.02.01.22-.09.17l-.03-.04s.05.09,0,.05c-.01-.02-.03-.04-.04-.04,0,.02.04.09.01.07l-.03-.05c-.09-.01.04.16.04.21-.11-.11-.18-.11-.21-.11l-.02-.02c-.06.03.03.16.04.24-.15-.08-.13.05-.23.04.03,0,.1.07.11.08-.03,0,.07.09-.05,0h0c-.12-.07-.11-.03-.12,0l.16.1c-.26-.08.02.16-.21.09.04.03.03.05.07.08l-.09-.04s-.06.04-.05.1l-.06-.03s.26.13.26.15l-.14-.04s-.15.08-.03.16c-.02,0-.06-.01-.07-.02,0,.02-.12.1.09.11-.13,0-.01.07.05.1h-.1c.13.02.16.02.2.05-.01.01-.08.02-.05,0-.04.04.1,0,.05.06h-.06s.03.03.11.02c.04,0,0,.06-.08.11.05-.02.12-.04.11,0-.03.02-.05.03-.06.03-.01.1.14,0,.1.1-.02.02-.03.04-.03.05-.04-.04-.07-.07-.06-.08-.07.06-.05.11-.17.16.09,0,.24-.07.25-.01,0,0,0,.02-.01.03h0s.02.02.03.01c0,.02.01.04.03.05-.03.07.05.07.08.08.03-.09.06-.07.05-.16,0,0,0,0-.02,0,0,0,0,0-.01,0h0s-.04-.02-.06-.03c.04-.04.07-.07.08,0,.03-.06.06-.11.08-.14-.02.14.03.22.04.31.09-.04.18-.05.17-.24,0-.03.03.05.04.07,0,.02-.01.02-.01.05.02-.05.08-.05.03-.17.05.04.03.12.06.08v.04c.2.14-.05-.35.16-.17-.01,0-.02-.01-.04-.03.15.03.06-.19.24-.12.04,0-.01-.05-.05-.1l.08.07-.08-.1c-.05-.08.24.13.13-.02l-.06-.04s0-.06.06,0c0,0-.06-.05-.02-.03l.04.03-.05-.09s.17.14.21.11c0-.03-.1-.14-.14-.15,0,0-.04,0-.08-.04l-.02-.03c-.13-.1-.27-.2-.37-.25l.07.07-.07-.04v-.02c-.06-.04-.01,0,.02.04-.03-.02-.06-.04-.07-.05l.11.11c-.05-.04-.09-.09-.13-.1.05.05.12.08.15.12-.06-.04-.11-.08-.07-.03-.03-.03-.05-.04-.07-.06.03.04,0,.03.07.09-.08-.05,0,.04-.12-.06.03.03.08.09.08.1-.13-.13-.03.02-.17-.12.12.12.03.08.08.16,0-.01-.03-.03-.02-.03-.02,0-.06-.03-.08-.05.1.1.11.13.16.2-.1-.09-.11-.12-.2-.21.08.08.06.1.13.16-.06-.05-.03-.02-.11-.1.11.13.01.03.08.11-.07-.06-.11-.12-.08-.07-.04-.04-.07-.09-.07-.09ZM4.77,7.83s0,.01,0,.01c0,0,0,0,0-.01ZM4.79,7.81h0s-.04.05-.04.05c.02-.02.03-.03.05-.05ZM4.5,8.43s-.02-.02-.02-.04c0,0,.02,0,.04,0h0s-.02.02-.03.03Z"/>
            <polygon class="cls-1" points="4.58 8.32 4.59 8.31 4.59 8.29 4.57 8.32 4.58 8.32"/>
            <path class="cls-1" d="M6.04,8.11h0s0,0,0-.01h0Z"/>
            <polygon class="cls-1" points="5.03 7.64 5.01 7.63 5.03 7.64 5.03 7.64"/>
            <path class="cls-1" d="M5.97,7.71v-.02s0,.01,0,.02Z"/>
            <path class="cls-1" d="M5.9,7.64v-.04s0,.03,0,.04Z"/>
            <path class="cls-1" d="M5.86,7.56s-.02.03-.02.04h0s.02-.04.02-.04Z"/>
            <path class="cls-1" d="M5.9,7.56h0s-.01,0,0,0Z"/>
            <path class="cls-1" d="M6.2,7.77s-.04,0-.05,0c0,0,0,0,.05,0Z"/>
            <polygon class="cls-1" points="5.65 7.37 5.65 7.37 5.65 7.36 5.65 7.37"/>
            <path class="cls-1" d="M6.15,7.76s-.01.01,0,.01c0,0,.02-.01,0-.01Z"/>
            <path class="cls-1" d="M5.63,7.36h0s0,0,0,0h0Z"/>
            <path class="cls-1" d="M5.62,7.37h0s0,0,0,0Z"/>
            <path class="cls-1" d="M5.59,7.39l.02-.02s0,0-.02.02Z"/>
            <path class="cls-1" d="M5.68,7.45l.02-.03s-.01.02-.02.03Z"/>
            <path class="cls-1" d="M5.71,7.46s.03-.07,0-.06l-.02.02s-.03.08,0,.04Z"/>
            <path class="cls-1" d="M5.58,7.9v-.04s-.05.08-.06.08c-.03.11.04-.08.06-.04Z"/>
            <path class="cls-1" d="M5.62,7.99s-.03.05-.04.07c.03-.03.03-.03.04-.07Z"/>
            <path class="cls-1" d="M6.33,8.2l.02.09s-.01-.03-.02-.09Z"/>
            <polygon class="cls-1" points="6.16 7.84 6.18 7.85 6.19 7.85 6.16 7.84"/>
            <polygon class="cls-1" points="6.75 7.88 6.76 7.9 6.73 7.85 6.75 7.88"/>
            <path class="cls-1" d="M6.26,6.74l-.08.08s.12-.09.08-.08Z"/>
            <path class="cls-1" d="M5.72,6.49c.01-.05,0-.1-.02-.05.01.01.01.06.02.05Z"/>
            <polygon class="cls-1" points="4.3 7.13 4.27 7.11 4.29 7.14 4.3 7.13"/>
          </g>
        </g>
        <g>
          <path d="M7.47,5.6c-.02-.1.27-1.2,1.16-1.12s1.9,1.25,1.41,1.92-2.27.57-2.56-.8Z"/>
          <g>
            <path class="cls-1" d="M7.7,5.56s-.1.02-.08.03l.12-.02h-.03Z"/>
            <path class="cls-1" d="M7.51,5.67c.06,0,.16-.02.26-.05-.11.01-.07,0-.2.03-.02,0,.03-.03.07-.04-.03,0,.02-.02-.05,0-.08.03-.08.05,0,.05-.02.01-.05.01-.08.02Z"/>
            <path class="cls-1" d="M8.04,6.68v-.02s0,.02,0,.02Z"/>
            <path class="cls-1" d="M8.73,7s-.01.01-.01.02c0,0,.01-.01.01-.02Z"/>
            <path class="cls-1" d="M8.84,7.15s0,0,0,0c0,.01,0,.02,0,0Z"/>
            <path class="cls-1" d="M8.04,6.68v.04s0-.03,0-.04Z"/>
            <path class="cls-1" d="M7.82,5.72s-.02,0-.03,0c0,0,.01,0,.01,0h.02Z"/>
            <path class="cls-1" d="M7.71,6.55h0s-.02.01-.04.03l.04-.03Z"/>
            <path class="cls-1" d="M7.52,6.35s.08-.05.12-.07c-.03.02-.05.03-.06.03-.01.01-.03.03-.05.04Z"/>
            <path class="cls-1" d="M7.46,5.91h-.02s0,0,.02,0Z"/>
            <path class="cls-1" d="M7.85,6.69s-.02.02-.02.03l.02-.03Z"/>
            <path class="cls-1" d="M7.97,5.5h-.02s.02,0,.02,0Z"/>
            <polygon class="cls-1" points="7.45 5.61 7.44 5.61 7.39 5.61 7.45 5.61"/>
            <path class="cls-1" d="M9.1,7.28h0s0,0,0,0Z"/>
            <path class="cls-1" d="M10.42,5.37c-.07.06-.12,0-.19.09.03-.02.15-.03.19-.09Z"/>
            <path class="cls-1" d="M7.81,5.73h0s0,0,0,0Z"/>
            <polygon class="cls-1" points="10.22 5.46 10.22 5.46 10.22 5.47 10.22 5.46"/>
            <path class="cls-1" d="M9.71,7.11s-.01-.03-.02-.04c0,0,0,.02.02.04Z"/>
            <path class="cls-1" d="M9.24,7.07h.01s-.01,0-.01,0Z"/>
            <path class="cls-1" d="M9.88,6.89s.02.01.02,0c0,0,0,0,0,0,0,.01,0,.02-.01.01Z"/>
            <polygon class="cls-1" points="10.09 6.74 10.08 6.73 10.07 6.74 10.09 6.74"/>
            <path class="cls-1" d="M8.14,5.1l-.07-.05c.05.04.06.08.07.05Z"/>
            <path class="cls-1" d="M7.76,5.74s.04-.01.04-.01h0s-.03,0-.03.01Z"/>
            <path class="cls-1" d="M9.51,6.2h.02s-.02,0-.02,0Z"/>
            <path class="cls-1" d="M8.94,4.99h-.01s0,0,.01,0Z"/>
            <path class="cls-1" d="M9.56,6.17s.04.04.05.05c0,0,0-.01-.01-.02l-.03-.03Z"/>
            <path class="cls-1" d="M8.07,5.05h0s0,0,0,0Z"/>
            <path class="cls-1" d="M8.17,5.3s-.1-.08-.16-.12c-.02-.04.09.04.15.07-.02-.03-.11-.11-.1-.12.02.01.03.01.05.03-.07-.08.02-.04-.06-.14l.03.02c-.05-.04-.1-.08-.14-.11,0-.01-.05-.07.02-.02,0,0,.02.03.04.05l-.02-.03c.1.07.02.04.09.1-.02-.04-.07-.13-.04-.12.09.08,0,.06.09.11h-.05c.15.1-.02-.01.14.11.04,0-.02-.06.02-.06-.04-.05-.07-.07-.11-.12-.04-.12.22.2.14.07-.04-.07-.13-.19-.07-.14l.07.11s-.1-.17-.02-.11c.02.05,0,.05.02.06.07.08-.03-.07-.02-.08l.06.1s0-.12.02-.15c.01.03.02.07.04.1.01-.07.08-.01.11.06v-.1s0,.05,0,.07c.02.04,0-.07,0-.11,0,0,.02.06.01.09,0-.09.07-.19.09-.08v.03s.03-.21.05-.11v.02c.04.05.12-.03.12.13.05-.14.03.08.1-.12,0,.11-.02.14-.01.22,0,.01.07-.11.09-.13l-.04.1.07-.1-.04.12.02-.02s.01-.05.02-.08c.04-.04.02.09,0,.14l.09-.06s-.04.05-.06.07c.08-.08-.05.1.02.03,0-.02.03-.06.05-.07-.02.06,0,.07.04.07l-.04.06s.09.02.12.04c0-.04.09-.14.11-.14l-.06.09c.05-.05.01-.04.08-.1,0,.02-.07.11-.1.14l.04-.02s-.03.04-.06.07c.05-.05-.05.11.04.02l-.02.03s.07,0,.1.03c.07-.07.06-.05.13-.1,0,.04-.03.12,0,.14.05-.02.07-.05.12-.09-.06.06-.04.08-.1.11.04.02.04.02.13.02.02-.03.03-.04.06-.06.02,0-.01.04-.05.07h0c.15-.03-.14.26.04.19h0s.11-.01.11-.01c0,.03-.06.02-.1.07.15-.03.02.07.12.06-.24.13.06.08-.1.17l.06-.02c.06-.01-.03.02-.04.03.05-.01.05-.02.09-.03.1.06-.06.16-.13.17-.02,0,.32.06.17.05l-.11-.03c.13.06-.02.03.07.12-.02-.02-.05-.04-.05-.04-.07-.04-.01.01.04.06-.01,0-.05-.04-.08-.06-.04-.03.07.08,0,.03,0-.01-.02-.02-.02-.03.03.03-.02,0,.05.08-.04-.02,0,.05-.04.02.06.09-.05-.03.03.1-.09-.13-.09-.09-.07-.02-.02-.04-.03-.04-.06-.1-.01,0,0,.04.03.11-.1-.16.01.17-.1-.05-.01.09-.04.17-.08.21-.03-.15.05-.03,0-.19-.02.08-.02.21-.07.18-.02-.02,0-.07,0-.1-.03.08-.08,0-.12.09,0-.01,0-.03,0-.04,0,0-.02-.02-.01.05v-.02c.03.1-.01.22-.01.28,0-.21-.05-.05-.04-.31,0,.01,0,.05,0,.1,0-.01-.01-.04,0-.1-.03.04-.02.12-.04.12,0-.03,0-.05,0-.09-.01.07-.03.14-.05.1,0-.02,0-.05,0-.05-.04,0-.08.18-.12.11.03-.15-.01-.05,0-.18l-.03.04v.06s-.05.09-.06.04l.02-.05-.04.02.02.05c-.03.06-.02.16-.05.12,0-.01-.02,0-.02-.08h0s-.04.08-.05.04c0-.04.03-.14.04-.17-.03.1-.05.02-.1.13.01-.03.03-.09.03-.11l-.03.08s0-.04.02-.1c-.03-.02-.03.16-.05.08,0,0,0-.02.02-.03-.02-.05-.09.04-.11-.02.04-.13.04-.02.06-.13-.05,0-.15.11-.18.06v.02c-.08.17,0-.1-.05-.03.01,0,.05-.09.04-.07-.01-.04-.07.01-.15.04l.03-.04s-.03-.04-.03-.07c-.03.04-.04.02-.07.08.11-.26-.19.04-.09-.17,0,0,.04-.02.04-.02h-.06c-.05.06-.03.04-.07.09-.04.03-.07.05-.08.04.05-.02.09-.09.12-.13l-.06.05c.09-.12-.12.11-.08.02l.03-.03s-.08.03-.08.02c.07-.07.04-.02.1-.07-.02,0-.16.09-.1.01.03-.01.04,0,.06-.01.07-.09.05-.07.05-.09h0s.02-.05.02-.05l-.02.02c-.21.13-.06-.01-.21.05.14-.06.08-.05.16-.1.02-.02.04-.05.07-.07-.08.04.04-.05-.07,0,.03-.02,0-.01.07-.06-.03,0-.05.03-.09.06-.12.03.09-.13-.07-.09-.08,0-.18.04-.26.02.04-.03.12-.04.12-.04.04-.04.02-.05-.02-.05.03,0,.05-.02.09-.04-.01-.01-.12.03-.08,0,.04,0,.1-.02.13-.03-.03,0-.1,0-.13,0,.06-.02.09-.02.13-.02-.03,0-.07-.03-.16-.01l-.03.02s.08-.03.09-.03c.08,0-.02.03-.06.05h-.02c-.19.07.05.04.04.06l-.14.04h.12s-.11.04-.13.03c-.06.05.06,0-.01.04-.01,0-.02,0-.02,0h.05s-.09.05-.08.03c-.06.07.13.01.03.07h0c.07.03.1-.04.23-.06l-.22.15.1-.05s0,.02-.04.04c.07-.02.04-.03.11-.05-.08.07.07.04-.07.13.07-.04.04-.05.1-.06-.15.11.04,0-.01.07-.08.05-.06,0-.11.07.14-.08,0,.06.04.06.1-.08.07,0,.12,0-.03.03,0,.09-.02.15h-.02c.1-.07.1-.03.14-.03-.05.05-.08.07-.11.09l.02.02s.05-.04.07-.04l-.07.07s.12-.04.11.03c.06-.07.14-.21.2-.24-.03.04-.08.1-.1.11,0,0,.04-.02.03,0l-.06.05s.05-.05.06-.03c-.04.05-.02.05-.06.09,0,0,0-.03-.01-.01,0,.02,0,.06-.03.11.02-.03.06-.07.07-.07.03.02-.04.07-.05.11.03-.03.02.02.08-.07,0,0-.02.05-.03.07.04-.03.07.03.12-.07h0s0-.01,0-.01h0s0,0,0,0c.1-.06.06.1.13.09l-.02.03s.07.01.12-.05c0,0,0,.07-.03.1.03-.01.05-.05.06.02-.05.05-.01.05-.04.03.02.04,0,.09.07.02-.04.08-.02.11,0,.1v-.07s.03,0,.04.02l-.04.11c.03.16.18-.2.17.04.04-.08-.02-.07.02-.15.02.02.02.19.03.2.03.08.07-.16.11-.11,0-.04.02-.15.05-.19.02.02,0,.18-.02.21,0,0,0-.01,0-.03-.01.01-.03.03-.02.08v-.04s.06.05.04.11c.03-.04.02-.07,0-.09.03.07.06.01.1.06,0-.02,0-.07,0-.07.05.06.03-.08.07-.09.02.06-.02.15.03.1.02.04,0,.11-.01.14.04-.08.07.06.1.07l-.02.03s.02-.02.03-.02v-.08s.01.02.01.05c.01-.05,0-.14.01-.21.02.04.04-.04.05.06-.05-.04,0,.11-.03.13,0-.01.02-.01.03,0,0,.01,0,.02,0,.03.05.1.02-.13.07-.13,0,.06.02.12.03.1-.02,0-.02-.1,0-.15.04.05.03-.04.05-.03l-.02-.02c0-.06.02-.06.03-.08,0,.05-.02.03,0,.06.01-.11.07.11.09.03.02.04.02.12.04.14.03-.09.06.08.09,0-.03-.08-.03-.06-.01-.15l-.05.07.02-.13s-.03.06-.04.05c0-.07,0-.05-.01-.12.05.12.03-.08.08,0l.04.2c.07.08.06-.12.13-.09l-.03-.03c-.02-.08.03-.02.04-.06.02.07.04.09.06.12-.02-.05.05-.01,0-.14l.06.08c.06.01-.02-.21.02-.2.02.07.06.11.06.17.02,0,.04,0,.01-.05.03.03,0-.1.04-.05,0-.03-.04-.09-.02-.1,0,.01.02.03.02.03-.02-.03,0-.05-.05-.11.16.16.09-.09.24.03.02-.04.03-.09.05-.12.01.02.03.02.02.02.08,0-.13-.15-.04-.14.1.05.03.06.07.07.18.14.02-.07.15-.03v.02c.09.01-.03-.11,0-.14,0,0,.02.01.03.02-.08-.08-.11-.15-.13-.19.08.04.04.03.13.05,0-.02-.14-.04-.15-.08.05,0,.1-.01.19,0v.04c.12.01,0-.05.03-.07h.05c0-.05-.15-.07-.13-.13h-.04c-.13-.03.08-.02-.02-.05h.14s-.14-.08-.17-.11c.1,0,.16.05.23.08,0-.02-.02-.08-.09-.08.01,0,.05.02.03.03-.11-.02-.17-.04-.17-.08.27-.04.05-.11.24-.19-.11-.05,0-.16-.06-.24-.18.11-.02-.02-.21.07-.02-.01-.02-.02,0-.03l.09-.11s.05,0,.09-.03c0-.05.07-.06.11-.11-.07.04-.1.04-.09,0l-.07.08c-.13,0,.13-.14,0-.13l.07-.02s-.06-.1-.22-.03c.02-.02.06-.06.08-.06-.02-.08-.24-.02-.19-.13l.04-.03s-.09.05-.06,0c.02-.01.04-.03.04-.04-.02,0-.09.03-.08,0l.05-.03c0-.1-.18.02-.24,0,.11-.11.11-.18.1-.22l.02-.02c-.05-.07-.19,0-.28,0,.07-.16-.08-.15-.09-.27,0,.03-.07.1-.09.11,0-.04-.1.07-.02-.05h0c.06-.12,0-.11-.02-.13l-.1.16c.06-.28-.21,0-.15-.23-.04.04-.06.03-.09.06l.04-.09s-.06-.07-.13-.06l.03-.06s-.13.26-.16.26l.03-.15c-.06-.02-.11-.15-.2-.03,0-.02.01-.06.02-.07-.03,0-.12-.12-.12.09,0-.13-.07-.01-.11.04v-.1c-.03.13-.02.16-.06.19-.01-.01-.01-.08,0-.05-.04-.05-.02.09-.06.05v-.06s-.02.03-.03.11c-.01.04-.06-.01-.09-.1,0,.05,0,.13-.02.11-.01-.03,0-.05,0-.06-.07-.05-.05.13-.11.05-.01-.03-.02-.04-.03-.05.05-.01.08-.02.08-.01-.02-.09-.07-.09-.07-.22-.02.08-.02.23-.07.21,0,0,0-.02-.02-.03h0s-.02,0-.02.01c-.02,0-.03-.01-.04-.01-.04-.07-.06-.01-.08,0,.05.09.02.08.08.15,0,0,0-.01,0-.02,0,0,0,0,0-.01h0s.04-.02.04-.02c0,.05.01.1-.03.06.02.06.04.12.05.15-.08-.11-.17-.15-.22-.22-.02.08-.1.11,0,.28,0,.03-.05-.03-.07-.05,0-.02,0-.02,0-.05,0,.06-.06.08.03.17-.07-.02-.07-.1-.09-.05l-.02-.03c-.23-.06.14.33-.13.25.02,0,.03,0,.04.02-.17.03-.03.25-.25.27-.05.02.03.05.08.1l-.1-.04.1.08c.07.07-.27-.01-.13.1h.07s.02.09-.06.07c.01,0,.07.03.03.03h-.05s.08.06.08.06c-.05.04-.21-.06-.24.03.01.02.16.18.2.13,0-.02.03-.06.09-.05,0,.01.02.02.03.03.04,0,.09-.01.06,0,.06-.01.12-.03.18-.04h.01s0,0,0,0l-.2.04h.01s.05-.01.05-.01c.04,0,.11,0,.21.02h.08s-.01,0-.01,0h-.05s.08,0,.08,0h0c.07.01,0,0-.03,0,.04,0,.07,0,.09.01l-.15-.05c.06.01.12.04.16.04-.07-.03-.14-.03-.18-.05.07,0,.13.03.08,0,.04,0,.07.02.08.03-.05-.02-.01-.03-.09-.07.09.02,0-.05.14,0-.03-.02-.11-.06-.11-.08.17.09.03-.04.21.04-.15-.08-.05-.08-.12-.14.01,0,.03.02.03.02.02,0,.07.01.1.02-.12-.06-.14-.1-.21-.15.13.05.14.09.25.14-.1-.05-.08-.08-.17-.12.08.03.04,0,.14.06-.15-.09-.02-.03-.1-.09.08.03.14.08.11.03.05.02.09.07.09.07ZM8.31,4.79h0s0,0,0,0c0,0,0,0,0,0ZM8.35,4.77s-.01,0-.02,0c-.01-.03-.02-.07-.02-.07,0,.02.02.04.04.06ZM7.96,4.19s.02,0,.03.01c0,0-.01.01-.02.02h0s-.01-.02-.02-.04Z"/>
            <polygon class="cls-1" points="8 4.32 8 4.32 8.02 4.34 8.01 4.31 8 4.32"/>
            <path class="cls-1" d="M8.04,6.66h0s0,0,0-.01h0Z"/>
            <polygon class="cls-1" points="8.87 5.01 8.88 4.99 8.87 5.01 8.87 5.01"/>
            <path class="cls-1" d="M8,6.2l.02-.02-.02.02Z"/>
            <path class="cls-1" d="M7.94,6.1l.02-.04s-.02.03-.02.04Z"/>
            <path class="cls-1" d="M7.92,6s-.03.02-.04.02h0s.04-.02.04-.02Z"/>
            <path class="cls-1" d="M9.17,6.41h0s0-.02,0,0Z"/>
            <path class="cls-1" d="M8.73,6.62s.02-.03.02-.04c0,0-.01-.01-.02.04Z"/>
            <polygon class="cls-1" points="9.51 6.2 9.51 6.2 9.51 6.2 9.51 6.2"/>
            <path class="cls-1" d="M8.77,6.58s-.01-.02-.02,0c0,0,.01.02.02,0Z"/>
            <path class="cls-1" d="M7.8,5.64h0s-.02,0-.02,0h.01Z"/>
            <path class="cls-1" d="M7.79,5.64h-.01s0,0,.01,0Z"/>
            <path class="cls-1" d="M7.75,5.64h.03s0,0-.03,0Z"/>
            <path class="cls-1" d="M7.8,5.77h.03s-.02,0-.03,0Z"/>
            <path class="cls-1" d="M7.82,5.79s.06-.05.04-.05h-.03c.05,0-.07.07,0,.05Z"/>
            <path class="cls-1" d="M7.51,6.15v-.05s-.06.06-.08.05c-.07.1.07-.05.08,0Z"/>
            <path class="cls-1" d="M7.53,6.29s-.05.03-.06.04c.04,0,.05-.01.06-.04Z"/>
            <path class="cls-1" d="M8.25,6.86l-.04.08s.01-.03.04-.08Z"/>
            <polygon class="cls-1" points="8.56 6.48 8.57 6.43 8.54 6.5 8.56 6.48"/>
            <polygon class="cls-1" points="8.47 7.12 8.46 7.13 8.5 7.11 8.47 7.12"/>
            <path class="cls-1" d="M10.11,6.84l-.07-.08s.07.12.07.08Z"/>
            <path class="cls-1" d="M10.41,6.07c.06,0,.09-.03.04-.04,0,.02-.05.03-.04.04Z"/>
            <polygon class="cls-1" points="9.4 4.28 9.44 4.26 9.4 4.27 9.4 4.28"/>
          </g>
        </g>
      </g>
    </g>
  </g>
</svg>